<svg xmlns="http://www.w3.org/2000/svg" width="28" height="28" viewBox="0 0 28 28" fill="none">
    <path fill-rule="evenodd" clip-rule="evenodd" d="M14.0003 9.33317C13.487 9.33317 13.067 9.75317 13.067 10.2665V13.0665H10.267C9.75366 13.0665 9.33366 13.4865 9.33366 13.9998C9.33366 14.5132 9.75366 14.9332 10.267 14.9332H13.067V17.7332C13.067 18.2465 13.487 18.6665 14.0003 18.6665C14.5137 18.6665 14.9337 18.2465 14.9337 17.7332V14.9332H17.7337C18.247 14.9332 18.667 14.5132 18.667 13.9998C18.667 13.4865 18.247 13.0665 17.7337 13.0665H14.9337V10.2665C14.9337 9.75317 14.5137 9.33317 14.0003 9.33317ZM14.0003 4.6665C8.84833 4.6665 4.66699 8.84784 4.66699 13.9998C4.66699 19.1518 8.84833 23.3332 14.0003 23.3332C19.1523 23.3332 23.3337 19.1518 23.3337 13.9998C23.3337 8.84784 19.1523 4.6665 14.0003 4.6665ZM14.0003 21.4665C9.88433 21.4665 6.53366 18.1158 6.53366 13.9998C6.53366 9.88384 9.88433 6.53317 14.0003 6.53317C18.1163 6.53317 21.467 9.88384 21.467 13.9998C21.467 18.1158 18.1163 21.4665 14.0003 21.4665Z" fill="lightgreen"/>
</svg>