<svg width="28" height="30" viewBox="0 0 28 30" fill="none" xmlns="http://www.w3.org/2000/svg">
<path fill-rule="evenodd" clip-rule="evenodd" d="M20.5026 15.98C20.5386 15.66 20.5656 15.34 20.5656 15C20.5656 14.66 20.5386 14.34 20.5026 14.02L22.4005 12.37C22.5714 12.22 22.6164 11.95 22.5085 11.73L20.7095 8.27C20.6016 8.05 20.3587 7.97 20.1608 8.05L17.9212 9.05C17.4534 8.65 16.9497 8.32 16.4011 8.07L16.0593 5.42C16.0323 5.18 15.8434 5 15.6185 5H12.0206C11.7958 5 11.6069 5.18 11.5799 5.42L11.2381 8.07C10.6894 8.32 10.1857 8.66 9.71801 9.05L7.47833 8.05C7.27146 7.96 7.03759 8.05 6.92966 8.27L5.13072 11.73C5.01379 11.95 5.06776 12.22 5.23866 12.37L7.13654 14.02C7.10056 14.34 7.07357 14.67 7.07357 15C7.07357 15.33 7.10056 15.66 7.13654 15.98L5.23866 17.63C5.06776 17.78 5.02278 18.05 5.13072 18.27L6.92966 21.73C7.03759 21.95 7.28045 22.03 7.47833 21.95L9.71801 20.95C10.1857 21.35 10.6894 21.68 11.2381 21.93L11.5799 24.58C11.6069 24.82 11.7958 25 12.0206 25H15.6185C15.8434 25 16.0323 24.82 16.0593 24.58L16.4011 21.93C16.9497 21.68 17.4534 21.34 17.9212 20.95L20.1608 21.95C20.3677 22.04 20.6016 21.95 20.7095 21.73L22.5085 18.27C22.6164 18.05 22.5714 17.78 22.4005 17.63L20.5026 15.98ZM13.8196 18.5C12.0836 18.5 10.6714 16.93 10.6714 15C10.6714 13.07 12.0836 11.5 13.8196 11.5C15.5556 11.5 16.9677 13.07 16.9677 15C16.9677 16.93 15.5556 18.5 13.8196 18.5Z" fill="#C3CAD9"/>
</svg>
