<svg width="30" height="30" viewBox="0 0 30 30" fill="none" xmlns="http://www.w3.org/2000/svg">
<path fill-rule="evenodd" clip-rule="evenodd" d="M26 9V5C26 4.45 25.55 4 25 4H21C20.45 4 20 4.45 20 5V6H10V5C10 4.45 9.55 4 9 4H5C4.45 4 4 4.45 4 5V9C4 9.55 4.45 10 5 10H6V20H5C4.45 20 4 20.45 4 21V25C4 25.55 4.45 26 5 26H9C9.55 26 10 25.55 10 25V24H20V25C20 25.55 20.45 26 21 26H25C25.55 26 26 25.55 26 25V21C26 20.45 25.55 20 25 20H24V10H25C25.55 10 26 9.55 26 9ZM6 6H8V8H6V6ZM8 24H6V22H8V24ZM20 22H10V21C10 20.45 9.55 20 9 20H8V10H9C9.55 10 10 9.55 10 9V8H20V9C20 9.55 20.45 10 21 10H22V20H21C20.45 20 20 20.45 20 21V22ZM24 24H22V22H24V24ZM22 8V6H24V8H22ZM15.94 10.65C15.79 10.26 15.41 10 14.99 10C14.57 10 14.19 10.26 14.05 10.65L11.28 17.98C11.09 18.47 11.45 19 11.98 19C12.3 19 12.58 18.8 12.69 18.5L13.24 17H16.73L17.29 18.51C17.4 18.8 17.68 19 18 19H18.01C18.54 19 18.9 18.47 18.72 17.98L15.94 10.65ZM13.69 15.74L15 11.91L16.3 15.74H13.69Z" fill="#C3CAD9"/>
</svg>
