<svg width="30" height="30" viewBox="0 0 30 30" fill="none" xmlns="http://www.w3.org/2000/svg">
<path fill-rule="evenodd" clip-rule="evenodd" d="M22 16H8C6.9 16 6 16.9 6 18V22C6 23.1 6.9 24 8 24H22C23.1 24 24 23.1 24 22V18C24 16.9 23.1 16 22 16ZM10 22C8.9 22 8 21.1 8 20C8 18.9 8.9 18 10 18C11.1 18 12 18.9 12 20C12 21.1 11.1 22 10 22ZM22 6H8C6.9 6 6 6.9 6 8V12C6 13.1 6.9 14 8 14H22C23.1 14 24 13.1 24 12V8C24 6.9 23.1 6 22 6ZM10 12C8.9 12 8 11.1 8 10C8 8.9 8.9 8 10 8C11.1 8 12 8.9 12 10C12 11.1 11.1 12 10 12Z" fill="#C3CAD9"/>
</svg>
