<svg width="14" height="10" viewBox="0 0 14 10" fill="none" xmlns="http://www.w3.org/2000/svg">
<path d="M4.77965 0.912201L5.1332 0.558648L5.84031 1.26575L5.48676 1.61931L4.77965 0.912201ZM1.39987 4.99909L1.04632 5.35264L0.692763 4.99909L1.04632 4.64553L1.39987 4.99909ZM5.48676 8.37887L5.84031 8.73242L5.1332 9.43953L4.77965 9.08597L5.48676 8.37887ZM5.48676 1.61931L1.75342 5.35264L1.04632 4.64553L4.77965 0.912201L5.48676 1.61931ZM1.75342 4.64553L5.48676 8.37887L4.77965 9.08597L1.04632 5.35264L1.75342 4.64553ZM1.39987 4.49909L13.5332 4.49909L13.5332 5.49909L1.39987 5.49909L1.39987 4.49909Z" fill="white"/>
</svg>
