<svg width="28" height="30" viewBox="0 0 28 30" fill="none" xmlns="http://www.w3.org/2000/svg">
<path fill-rule="evenodd" clip-rule="evenodd" d="M21.6656 23V7C21.6656 6.45 21.2621 6 20.7688 6C20.2756 6 19.8721 6.45 19.8721 7V23C19.8721 23.55 20.2756 24 20.7688 24C21.2621 24 21.6656 23.55 21.6656 23ZM18.0785 23V7C18.0785 6.45 17.6749 6 17.1817 6C16.6885 6 16.2849 6.45 16.2849 7V23C16.2849 23.55 16.6885 24 17.1817 24C17.6749 24 18.0785 23.55 18.0785 23ZM14.4913 23L14.4913 7C14.4913 6.45 14.0878 6 13.5945 6C13.1013 6 12.6977 6.45 12.6977 7V23C12.6977 23.55 13.1013 24 13.5945 24C14.0878 24 14.4913 23.55 14.4913 23ZM10.9042 23V7C10.9042 6.45 10.5006 6 10.0074 6C9.51415 6 9.11059 6.45 9.11059 7V23C9.11059 23.55 9.51415 24 10.0074 24C10.5006 24 10.9042 23.55 10.9042 23ZM6.42023 24C6.91346 24 7.31701 23.55 7.31701 23L7.31701 7C7.31701 6.45 6.91346 6 6.42023 6C5.92699 6 5.52344 6.45 5.52344 7L5.52344 23C5.52344 23.55 5.92699 24 6.42023 24Z" fill="#C3CAD9"/>
</svg>
