<svg xmlns="http://www.w3.org/2000/svg" width="30" height="30" viewBox="0 0 30 30" fill="none">
    <path fill-rule="evenodd" clip-rule="evenodd" d="M25.41 13.41L20.58 8.58C20.21 8.21 19.7 8 19.17 8H6C4.9 8 4 8.89 4 10V17C4 18.1 4.9 19 6 19C6 20.66 7.34 22 9 22C10.66 22 12 20.66 12 19H18C18 20.66 19.34 22 21 22C22.66 22 24 20.66 24 19C25.1 19 26 18.1 26 17V14.83C26 14.3 25.79 13.79 25.41 13.41ZM6 13V11C6 10.45 6.45 10 7 10H10V14H7C6.45 14 6 13.55 6 13ZM9 20.25C8.31 20.25 7.75 19.69 7.75 19C7.75 18.31 8.31 17.75 9 17.75C9.69 17.75 10.25 18.31 10.25 19C10.25 19.69 9.69 20.25 9 20.25ZM16 14H12V10H16V14ZM21 20.25C20.31 20.25 19.75 19.69 19.75 19C19.75 18.31 20.31 17.75 21 17.75C21.69 17.75 22.25 18.31 22.25 19C22.25 19.69 21.69 20.25 21 20.25ZM18 14V10H19L23 14H18Z" fill="#C3CAD9"/>
</svg>