<svg width="40" height="40" viewBox="0 0 40 40" fill="none" xmlns="http://www.w3.org/2000/svg">
<rect width="40" height="40" rx="20" fill="black" fill-opacity="0.1"/>
<path fill-rule="evenodd" clip-rule="evenodd" d="M25.4998 13.749C25.3254 13.5742 25.0887 13.476 24.8418 13.476C24.5949 13.476 24.3582 13.5742 24.1838 13.749L19.6198 18.3036L15.0558 13.7396C14.8814 13.5649 14.6447 13.4667 14.3978 13.4667C14.1509 13.4667 13.9142 13.5649 13.7398 13.7396C13.3758 14.1036 13.3758 14.6916 13.7398 15.0556L18.3038 19.6196L13.7398 24.1836C13.3758 24.5476 13.3758 25.1356 13.7398 25.4996C14.1038 25.8636 14.6918 25.8636 15.0558 25.4996L19.6198 20.9356L24.1838 25.4996C24.5478 25.8636 25.1358 25.8636 25.4998 25.4996C25.8638 25.1356 25.8638 24.5476 25.4998 24.1836L20.9358 19.6196L25.4998 15.0556C25.8545 14.701 25.8545 14.1036 25.4998 13.749Z" fill="white"/>
</svg>
