<?xml version="1.0" encoding="UTF-8" standalone="no"?>
<svg
   width="800px"
   height="800px"
   viewBox="0 0 32 32"
   version="1.1"
   id="svg1"
   xmlns="http://www.w3.org/2000/svg">
  <title
     id="title1">comment 3</title>
  <desc
     id="desc1">Created with Sketch Beta.</desc>
  <defs
     id="defs1" />
  <g
     id="Page-1"
     stroke="none"
     stroke-width="1"
     fill="none"
     fill-rule="evenodd"
     transform="matrix(0.82322335,0,0,0.78582823,2.8284272,3.4811411)">
    <g
       id="Icon-Set-Filled"
       transform="translate(-207,-257)"
       fill="#c3cad9">
      <path
         d="m 231,273 c -1.104,0 -2,-0.896 -2,-2 0,-1.104 0.896,-2 2,-2 1.104,0 2,0.896 2,2 0,1.104 -0.896,2 -2,2 z m -8,0 c -1.104,0 -2,-0.896 -2,-2 0,-1.104 0.896,-2 2,-2 1.104,0 2,0.896 2,2 0,1.104 -0.896,2 -2,2 z m -8,0 c -1.104,0 -2,-0.896 -2,-2 0,-1.104 0.896,-2 2,-2 1.104,0 2,0.896 2,2 0,1.104 -0.896,2 -2,2 z m 8,-16 c -8.836,0 -16,6.269 -16,14 0,4.419 2.345,8.354 6,10.919 V 289 l 7.009,-4.253 c 0.97,0.16 1.968,0.253 2.991,0.253 8.836,0 16,-6.268 16,-14 0,-7.731 -7.164,-14 -16,-14 z"
         id="comment-3" />
    </g>
  </g>
</svg>
