<?xml version="1.0" encoding="UTF-8" standalone="no"?>
<svg
   viewBox="0 0 64 64"
   fill="none"
   version="1.1"
   xmlns="http://www.w3.org/2000/svg">
  <defs
     id="defs2" />
  <g
     id="g1"
     transform="matrix(1.8715395,0,0,1.882025,4.0515375,6.0314512)">
    <path
       clip-rule="evenodd"
       d="m 10,7.88974 c 1.1046,0 2,-0.90062 2,-2.0116 0,-1.11098 -0.8954,-2.0116 -2,-2.0116 -1.10457,0 -2,0.90062 -2,2.0116 0,1.11098 0.89543,2.0116 2,2.0116 z M 10,6.5822 c 0.3866,0 0.7,-0.31522 0.7,-0.70406 0,-0.38884 -0.3134,-0.70406 -0.7,-0.70406 -0.3866,0 -0.7,0.31522 -0.7,0.70406 0,0.38884 0.3134,0.70406 0.7,0.70406 z"
       fill="#c3cad9"
       fill-rule="evenodd"
       id="path1" />
  </g>
  <g
     id="g2"
     transform="matrix(1.8715395,0,0,1.882025,4.0515375,6.0314512)">
    <path
       clip-rule="evenodd"
       d="M 5.15,5.62669 C 5.15,3.0203 7.37393,1 10,1 c 2.6261,0 4.85,2.0203 4.85,4.62669 0,0.43343 -0.0386,0.90859 -0.1231,1.40909 L 18,7.8588 25.7575,5.90818 C 26.0562,5.83306 26.3727,5.90057 26.6154,6.09117 26.8581,6.28178 27,6.57423 27,6.88395 V 23.9826 c 0,0.4615 -0.3123,0.8638 -0.7575,0.9758 l -8,2.0116 c -0.1592,0.04 -0.3258,0.04 -0.485,0 L 10,25.0193 2.24254,26.97 C 1.94379,27.0451 1.6273,26.9776 1.38459,26.787 1.14187,26.5964 1,26.3039 1,25.9942 V 8.89555 C 1,8.43402 1.3123,8.03172 1.75746,7.91978 L 5.2731,7.03578 C 5.18863,6.53528 5.15,6.06012 5.15,5.62669 Z M 10,2.70986 c -1.79221,0 -3.15,1.35705 -3.15,2.91683 0,1.59017 0.6625,3.94618 2.55979,5.73481 0.33262,0.3136 0.84781,0.3136 1.18041,0 C 12.4875,9.57287 13.15,7.21686 13.15,5.62669 13.15,4.06691 11.7922,2.70986 10,2.70986 Z M 5.80904,8.97453 3.22684,9.62382 C 3.09349,9.65735 3,9.77726 3,9.91476 V 24.3212 c 0,0.1953 0.18371,0.3386 0.37316,0.2909 l 5.4,-1.3578 C 8.90651,23.2208 9,23.1009 9,22.9634 V 13.2506 C 7.40353,12.024 6.39235,10.4792 5.80904,8.97453 Z M 11,13.2506 v 9.7128 c 0,0.1375 0.0935,0.2574 0.2268,0.2909 l 5.4,1.3578 C 16.8163,24.6598 17,24.5165 17,24.3212 V 9.91477 C 17,9.77726 16.9065,9.65735 16.7732,9.62382 L 14.191,8.97453 C 13.6076,10.4792 12.5965,12.024 11,13.2506 Z m 14,9.7128 c 0,0.1375 -0.0935,0.2574 -0.2268,0.2909 l -5.4,1.3578 C 19.1837,24.6598 19,24.5165 19,24.3212 V 9.91477 c 0,-0.13751 0.0935,-0.25741 0.2268,-0.29095 l 5.4,-1.35783 C 24.8163,8.21835 25,8.36159 25,8.55693 Z"
       fill="#c3cad9"
       fill-rule="evenodd"
       id="path2" />
  </g>
  <g
     id="SVGRepo_iconCarrier">
    <path
       d="m 47.351911,2.2243002 c -0.445897,-0.351608 -1.030535,-0.527469 -1.615171,-0.527469 -0.584635,0 -1.169273,0.175857 -1.615319,0.527469 L 32.69979,11.227535 c -0.892101,0.703093 -0.892101,1.843267 0,2.546476 0.892103,0.703092 2.338537,0.703092 3.23049,0 L 43.452413,7.8445992 V 39.510424 c 0,0.994437 1.022767,1.80065 2.284327,1.80065 1.26156,0 2.284328,-0.806213 2.284328,-1.80065 V 7.8445992 l 7.522133,5.9294118 c 0.892103,0.703092 2.338387,0.703092 3.23049,0 0.892101,-0.703093 0.892101,-1.843263 0,-2.546476 z"
       fill="#c3cad9"
       style="stroke-width:0.135208" />
  </g>
</svg>
