<svg xmlns="http://www.w3.org/2000/svg" width="24" height="24" viewBox="0 0 24 24" fill="none">
    <path fill-rule="evenodd" clip-rule="evenodd" d="M7.20039 17.5998C7.20039 18.4798 7.92039 19.1998 8.80039 19.1998H15.2004C16.0804 19.1998 16.8004 18.4798 16.8004 17.5998V9.5998C16.8004 8.7198 16.0804 7.9998 15.2004 7.9998H8.80039C7.92039 7.9998 7.20039 8.7198 7.20039 9.5998V17.5998ZM16.8004 5.5998H14.8004L14.2324 5.0318C14.0884 4.8878 13.8804 4.7998 13.6724 4.7998H10.3284C10.1204 4.7998 9.91239 4.8878 9.76839 5.0318L9.20039 5.5998H7.20039C6.76039 5.5998 6.40039 5.9598 6.40039 6.3998C6.40039 6.8398 6.76039 7.1998 7.20039 7.1998H16.8004C17.2404 7.1998 17.6004 6.8398 17.6004 6.3998C17.6004 5.9598 17.2404 5.5998 16.8004 5.5998Z" fill="#C3CAD9"/>
</svg>