<svg width="30" height="30" viewBox="0 0 30 30" fill="none" xmlns="http://www.w3.org/2000/svg">
<path fill-rule="evenodd" clip-rule="evenodd" d="M18.5097 6.85L19.8806 8.3L17.8196 10.46C17.4509 10.85 17.4509 11.49 17.8196 11.88C18.1883 12.27 18.7934 12.27 19.1621 11.88L21.2041 9.7L22.575 11.15C22.8681 11.46 23.3786 11.24 23.3786 10.79V6.5C23.3786 6.22 23.1706 6 22.9059 6H18.8501C18.4247 6 18.2167 6.54 18.5097 6.85ZM7.16492 11.15L8.53575 9.7L10.5778 11.88C10.9465 12.27 11.5516 12.27 11.9203 11.88C12.289 11.49 12.289 10.85 11.9203 10.46L9.85932 8.3L11.2301 6.85C11.5232 6.54 11.3152 6 10.8898 6H6.83403C6.56932 6 6.36133 6.22 6.36133 6.5V10.79C6.36133 11.24 6.87185 11.46 7.16492 11.15ZM11.2301 23.15L9.85932 21.7L11.9203 19.54C12.289 19.15 12.289 18.51 11.9203 18.12C11.5516 17.73 10.9465 17.73 10.5778 18.12L8.53575 20.3L7.16492 18.85C6.87185 18.54 6.36133 18.76 6.36133 19.21V23.5C6.36133 23.78 6.56932 24 6.83403 24H10.8898C11.3152 24 11.5232 23.46 11.2301 23.15ZM22.575 18.85L21.2041 20.3L19.1621 18.12C18.7934 17.73 18.1883 17.73 17.8196 18.12C17.4509 18.51 17.4509 19.15 17.8196 19.54L19.8806 21.7L18.5097 23.15C18.2167 23.46 18.4247 24 18.8501 24H22.9059C23.1706 24 23.3786 23.78 23.3786 23.5V19.21C23.3786 18.76 22.8681 18.54 22.575 18.85Z" fill="#C3CAD9"/>
</svg>
