<svg
   viewBox="-2 0 60 60" xmlns="http://www.w3.org/2000/svg">
  <defs
     id="defs1">
    <style
       id="style1">
      .cls-1 {
        fill: #C3CAD9;
        fill-rule: evenodd;
      }
    </style>
  </defs>
  <path
     class="cls-1"
     d="m 41.983517,44.307693 a 2.9697802,3.1153847 0 0 0 -2.969781,3.115384 v 6.230769 H 18.225275 a 2.9697802,3.1153847 0 0 1 -2.96978,-3.115385 V 10.038462 a 2.9697802,3.1153847 0 0 1 2.96978,-3.1153851 h 26.728022 a 2.9697802,3.1153847 0 0 1 2.96978,3.1153851 v 34.269231 z m 0,9.346153 v -6.230769 h 5.93956 z M 24.164836,19.384616 h 14.8489 a 1.4848901,1.5576923 0 0 1 0,3.115384 h -14.8489 a 1.4848901,1.5576923 0 0 1 0,-3.115384 z m 0,7.788461 h 14.8489 a 1.4848901,1.5576923 0 0 1 0,3.115384 h -14.8489 a 1.4848901,1.5576923 0 0 1 0,-3.115384 z m 0,7.788461 h 14.8489 a 1.4848904,1.5576926 0 0 1 0,3.115385 h -14.8489 a 1.4848904,1.5576926 0 0 1 0,-3.115385 z"
     id="documents-2"
     style="stroke-width:0.760428" />
  <path
     class="cls-1"
     d="m 12.293139,10.065721 v 40.679134 a 5.9098627,6.1996154 0 0 0 0.713489,2.908991 H 9.315934 A 2.9697802,3.1153847 0 0 1 6.3461538,50.538461 V 10.038462 A 2.9697802,3.1153847 0 0 1 9.315934,6.9230769 h 3.810228 a 5.9009533,6.1902692 0 0 0 -0.833023,3.1426441 z"
     id="documents_copy"
     style="stroke-width:0.760428" />
</svg>
