<svg width="30" height="30" viewBox="0 0 30 30" fill="none" xmlns="http://www.w3.org/2000/svg">
<path fill-rule="evenodd" clip-rule="evenodd" d="M20.75 10.0018L17 6.25215L7.15 16.1011C7.05 16.2011 7 16.3211 7 16.4611V19.5008C7 19.7807 7.22 20.0007 7.5 20.0007H10.54C10.67 20.0007 10.8 19.9507 10.89 19.8507L20.75 10.0018ZM23.71 7.04207C24.1 6.65211 24.1 6.02217 23.71 5.63221L21.37 3.29246C21.1832 3.10522 20.9295 3 20.665 3C20.4005 3 20.1468 3.10522 19.96 3.29246L18 5.25225L21.75 9.00186L23.71 7.04207ZM5 23.0004H25C26.1 23.0004 27 23.9003 27 25.0002C27 26.1001 26.1 27 25 27H5C3.9 27 3 26.1001 3 25.0002C3 23.9003 3.9 23.0004 5 23.0004Z" fill="#C3CAD9"/>
</svg>
