<svg xmlns="http://www.w3.org/2000/svg" width="30" height="30" viewBox="0 0 30 30" fill="none">
    <path fill-rule="evenodd" clip-rule="evenodd" d="M19.5 9.74917V20.3292C19.5 22.4192 17.97 24.2792 15.89 24.4792C13.5 24.7092 11.5 22.8392 11.5 20.4992V8.13917C11.5 6.82917 12.44 5.63917 13.74 5.50917C15.24 5.35917 16.5 6.52917 16.5 7.99917V18.4992C16.5 19.0492 16.05 19.4992 15.5 19.4992C14.95 19.4992 14.5 19.0492 14.5 18.4992V9.74917C14.5 9.33917 14.16 8.99917 13.75 8.99917C13.34 8.99917 13 9.33917 13 9.74917V18.3592C13 19.6692 13.94 20.8592 15.24 20.9892C16.74 21.1392 18 19.9692 18 18.4992V8.16917C18 6.07917 16.47 4.21917 14.39 4.01917C12.01 3.78917 10 5.65917 10 7.99917V20.2692C10 23.1392 12.1 25.7092 14.96 25.9792C18.25 26.2792 21 23.7192 21 20.4992V9.74917C21 9.33917 20.66 8.99917 20.25 8.99917C19.84 8.99917 19.5 9.33917 19.5 9.74917Z" fill="#C3CAD9"/>
</svg>