<svg xmlns="http://www.w3.org/2000/svg" width="30" height="30" viewBox="0 0 30 30" fill="none">
    <path fill-rule="evenodd" clip-rule="evenodd" d="M18 21.5C15.49 21.5 13.32 20.08 12.24 18H17C17.55 18 18 17.55 18 17C18 16.45 17.55 16 17 16H11.58C11.53 15.67 11.5 15.34 11.5 15C11.5 14.66 11.53 14.33 11.58 14H17C17.55 14 18 13.55 18 13C18 12.45 17.55 12 17 12H12.24C13.32 9.92 15.5 8.5 18 8.5C19.25 8.5 20.42 8.86 21.42 9.47C21.92 9.78 22.57 9.73 22.99 9.31C23.57 8.73 23.44 7.78 22.74 7.35C21.36 6.5 19.73 6 18 6C14.08 6 10.76 8.51 9.52 12H7C6.45 12 6 12.45 6 13C6 13.55 6.45 14 7 14H9.06C9.02 14.33 9 14.66 9 15C9 15.34 9.02 15.67 9.06 16H7C6.45 16 6 16.45 6 17C6 17.55 6.45 18 7 18H9.52C10.76 21.49 14.08 24 18 24C19.74 24 21.36 23.51 22.74 22.65C23.43 22.22 23.56 21.26 22.98 20.68C22.56 20.26 21.91 20.21 21.41 20.53C20.42 21.15 19.26 21.5 18 21.5Z" fill="red"/>
</svg>