<svg xmlns="http://www.w3.org/2000/svg" width="30" height="30" viewBox="0 0 30 30" fill="none">
    <path fill-rule="evenodd" clip-rule="evenodd" d="M15.3 13.9C13.03 13.31 12.3 12.7 12.3 11.75C12.3 10.66 13.31 9.9 15 9.9C16.42 9.9 17.13 10.44 17.39 11.3C17.51 11.7 17.84 12 18.26 12H18.56C19.22 12 19.69 11.35 19.46 10.73C19.04 9.55 18.06 8.57 16.5 8.19V7.5C16.5 6.67 15.83 6 15 6C14.17 6 13.5 6.67 13.5 7.5V8.16C11.56 8.58 10 9.84 10 11.77C10 14.08 11.91 15.23 14.7 15.9C17.2 16.5 17.7 17.38 17.7 18.31C17.7 19 17.21 20.1 15 20.1C13.35 20.1 12.5 19.51 12.17 18.67C12.02 18.28 11.68 18 11.27 18H10.99C10.32 18 9.85 18.68 10.1 19.3C10.67 20.69 12 21.51 13.5 21.83V22.5C13.5 23.33 14.17 24 15 24C15.83 24 16.5 23.33 16.5 22.5V21.85C18.45 21.48 20 20.35 20 18.3C20 15.46 17.57 14.49 15.3 13.9Z" fill="#2EE6CA"/>
</svg>