<svg width="24" height="24" viewBox="0 0 24 24" fill="none" xmlns="http://www.w3.org/2000/svg">
<path d="M5.57143 3H18.4286C19.8531 3 21 4.14686 21 5.57143V18.4286C21 19.8531 19.8531 21 18.4286 21H5.57143C4.14686 21 3 19.8531 3 18.4286V5.57143C3 4.14686 4.14686 3 5.57143 3Z" stroke="#545D71" stroke-width="2" stroke-linecap="round" stroke-linejoin="round"/>
<path d="M6.85938 8.85547H8.14509" stroke="#545D71" stroke-width="2" stroke-linecap="round" stroke-linejoin="round"/>
<path d="M9.42522 10.1417C9.08423 10.1417 8.7572 10.0063 8.51609 9.76516C8.27497 9.52405 8.13951 9.19702 8.13951 8.85603C8.13951 8.51503 8.27497 8.18801 8.51609 7.94689C8.7572 7.70577 9.08423 7.57031 9.42522 7.57031C9.59407 7.57031 9.76125 7.60357 9.91724 7.66818C10.0732 7.73279 10.215 7.8275 10.3344 7.94689C10.4537 8.06628 10.5485 8.20801 10.6131 8.36401C10.6777 8.52 10.7109 8.68718 10.7109 8.85603C10.7109 9.02487 10.6777 9.19206 10.6131 9.34805C10.5485 9.50404 10.4537 9.64577 10.3344 9.76516C10.215 9.88455 10.0732 9.97926 9.91724 10.0439C9.76125 10.1085 9.59407 10.1417 9.42522 10.1417Z" stroke="#545D71" stroke-width="2" stroke-linecap="round" stroke-linejoin="round"/>
<path d="M10.7109 8.8555L17.1395 8.85547" stroke="#545D71" stroke-width="2" stroke-linecap="round" stroke-linejoin="round"/>
<path d="M17.1451 15.2852H15.8594" stroke="#545D71" stroke-width="2" stroke-linecap="round" stroke-linejoin="round"/>
<path d="M14.5748 16.5714C14.9158 16.5714 15.2428 16.436 15.4839 16.1949C15.725 15.9537 15.8605 15.6267 15.8605 15.2857C15.8605 14.9447 15.725 14.6177 15.4839 14.3766C15.2428 14.1355 14.9158 14 14.5748 14C14.2338 14 13.9068 14.1355 13.6656 14.3766C13.4245 14.6177 13.2891 14.9447 13.2891 15.2857C13.2891 15.6267 13.4245 15.9537 13.6656 16.1949C13.9068 16.436 14.2338 16.5714 14.5748 16.5714Z" stroke="#545D71" stroke-width="2" stroke-linecap="round" stroke-linejoin="round"/>
<path d="M13.2879 15.2852L6.85938 15.2852" stroke="#545D71" stroke-width="2" stroke-linecap="round" stroke-linejoin="round"/>
</svg>
