<svg width="20" height="18" viewBox="0 0 20 18" fill="none" xmlns="http://www.w3.org/2000/svg">
<path fill-rule="evenodd" clip-rule="evenodd" d="M9.70793 4V2C9.70793 0.9 8.85707 0 7.81712 0H2.14471C1.10477 0 0.253906 0.9 0.253906 2V16C0.253906 17.1 1.10477 18 2.14471 18H17.2711C18.3111 18 19.162 17.1 19.162 16V6C19.162 4.9 18.3111 4 17.2711 4H9.70793ZM4.03552 16H2.14471V14H4.03552V16ZM4.03552 12H2.14471V10H4.03552V12ZM4.03552 8H2.14471V6H4.03552V8ZM4.03552 4H2.14471V2H4.03552V4ZM7.81712 16H5.92632V14H7.81712V16ZM7.81712 12H5.92632V10H7.81712V12ZM7.81712 8H5.92632V6H7.81712V8ZM7.81712 4H5.92632V2H7.81712V4ZM16.3257 16H9.70793V14H11.5987V12H9.70793V10H11.5987V8H9.70793V6H16.3257C16.8457 6 17.2711 6.45 17.2711 7V15C17.2711 15.55 16.8457 16 16.3257 16ZM15.3803 8H13.4895V10H15.3803V8ZM15.3803 12H13.4895V14H15.3803V12Z" fill="#C3CAD9"/>
</svg>
