<svg width="30" height="30" viewBox="0 0 30 30" fill="none" xmlns="http://www.w3.org/2000/svg">
<path fill-rule="evenodd" clip-rule="evenodd" d="M25 12.0125H20.21L15.82 5.4425C15.42 4.8525 14.55 4.8525 14.16 5.4425L9.77 12.0125H5C4.45 12.0125 4 12.4625 4 13.0125C4 13.1025 4.01 13.1925 4.04 13.2825L6.58 22.5525C6.81 23.3925 7.58 24.0125 8.5 24.0125H21.5C22.42 24.0125 23.19 23.3925 23.43 22.5525L25.97 13.2825L26 13.0125C26 12.4625 25.55 12.0125 25 12.0125ZM14.99 7.8025L17.8 12.0125H12.18L14.99 7.8025ZM15 20.0125C13.9 20.0125 13 19.1125 13 18.0125C13 16.9125 13.9 16.0125 15 16.0125C16.1 16.0125 17 16.9125 17 18.0125C17 19.1125 16.1 20.0125 15 20.0125Z" fill="#C3CAD9"/>
</svg>
