<svg xmlns="http://www.w3.org/2000/svg" width="28" height="28" viewBox="0 0 28 28" fill="none">
    <path fill-rule="evenodd" clip-rule="evenodd" d="M5.60033 8.39984C5.08699 8.39984 4.66699 8.81984 4.66699 9.33317V21.4665C4.66699 22.4932 5.50699 23.3332 6.53366 23.3332H18.667C19.1803 23.3332 19.6003 22.9132 19.6003 22.3998C19.6003 21.8865 19.1803 21.4665 18.667 21.4665H7.46699C6.95366 21.4665 6.53366 21.0465 6.53366 20.5332V9.33317C6.53366 8.81984 6.11366 8.39984 5.60033 8.39984ZM21.467 4.6665H10.267C9.24033 4.6665 8.40033 5.5065 8.40033 6.53317V17.7332C8.40033 18.7598 9.24033 19.5998 10.267 19.5998H21.467C22.4937 19.5998 23.3337 18.7598 23.3337 17.7332V6.53317C23.3337 5.5065 22.4937 4.6665 21.467 4.6665ZM19.6003 13.0665H16.8003V15.8665C16.8003 16.3798 16.3803 16.7998 15.867 16.7998C15.3537 16.7998 14.9337 16.3798 14.9337 15.8665V13.0665H12.1337C11.6203 13.0665 11.2003 12.6465 11.2003 12.1332C11.2003 11.6198 11.6203 11.1998 12.1337 11.1998H14.9337V8.39984C14.9337 7.8865 15.3537 7.4665 15.867 7.4665C16.3803 7.4665 16.8003 7.8865 16.8003 8.39984V11.1998H19.6003C20.1137 11.1998 20.5337 11.6198 20.5337 12.1332C20.5337 12.6465 20.1137 13.0665 19.6003 13.0665Z" fill="white"/>
</svg>