<?xml version="1.0" encoding="UTF-8" standalone="no"?>
<svg
   height="20"
   viewBox="0 0 20 20"
   width="20"
   version="1.1"
   id="svg1"
   xmlns="http://www.w3.org/2000/svg">
  <defs
     id="defs1" />
  <path
     d="m 9.9759615,18.846154 c -4.9254241,0 -8.9182692,-3.917509 -8.9182692,-8.75 0,-4.8324917 3.9928451,-8.7500002 8.9182692,-8.7500002 4.9254245,0 8.9182685,3.9175085 8.9182685,8.7500002 0,4.832491 -3.992844,8.75 -8.9182685,8.75 z m 0,-1.75 c 3.9403395,0 7.1346155,-3.134007 7.1346155,-7 0,-3.8659934 -3.194276,-7.0000001 -7.1346155,-7.0000001 -3.9403392,0 -7.1346154,3.1340067 -7.1346154,7.0000001 0,3.865993 3.1942762,7 7.1346154,7 z M 10.867788,15.346153 H 9.0841346 v -1.749999 h 1.7836534 z m 0,-2.624999 H 9.0841346 V 4.8461538 h 1.7836534 z"
     fill="#c3cad9"
     fill-rule="evenodd"
  />
</svg>
