<svg viewBox="0 0 30 30" fill="none" xmlns="http://www.w3.org/2000/svg">
<path fill-rule="evenodd" clip-rule="evenodd" d="M23 18H7C6.45 18 6 18.45 6 19C6 19.55 6.45 20 7 20H23C23.55 20 24 19.55 24 19C24 18.45 23.55 18 23 18ZM23 13H7C6.45 13 6 13.45 6 14V15C6 15.55 6.45 16 7 16H23C23.55 16 24 15.55 24 15V14C24 13.45 23.55 13 23 13ZM23 7H7C6.45 7 6 7.45 6 8V10C6 10.55 6.45 11 7 11H23C23.55 11 24 10.55 24 10V8C24 7.45 23.55 7 23 7ZM23.5 22H6.5C6.22 22 6 22.22 6 22.5C6 22.78 6.22 23 6.5 23H23.5C23.78 23 24 22.78 24 22.5C24 22.22 23.78 22 23.5 22Z" fill="#C3CAD9"/>
</svg>
