<svg width="99" height="23" viewBox="0 0 99 23" fill="none" xmlns="http://www.w3.org/2000/svg">
<g id="LogoWAPI" clip-path="url(#clip0_1964_8892)">
<path id="Vector" fill-rule="evenodd" clip-rule="evenodd" d="M78.4285 0.658154H64.1158V22.4975H67.6942V16.7393H82.0062V13.5311H67.6942V3.86636H82.0062V0.658154H78.4285ZM82.0095 3.86636V13.5311H85.5878V3.86695L82.0095 3.86636ZM56.4298 6.41641V12.8529H42.1172V6.41641H38.5395V22.4975H42.1172V16.0611H56.4298V22.4975H60.0075V6.41641H56.4298ZM42.1152 6.41641H45.6935V3.20821H42.1152V6.41641ZM45.6942 0L45.6935 3.20821H52.8501V0H45.6942ZM52.8515 6.41641H56.4298L56.4291 3.20821H52.8515V6.41641ZM34.0165 0.455872L28.9396 18.6335H27.372L22.5179 0.455872H15.4906L10.6366 18.6335H9.06836L3.99143 0.455872H0.272461L6.44 21.9414H13.399L18.2172 3.76256H19.7894L24.6454 21.9408H31.6064L37.7374 0.455872H34.0165ZM94.525 0.455872H87.1846V3.74723H90.8551V19.2062H87.1846V22.4969H98.1956V19.2062H94.525V3.74723H98.1956V0.456462L94.525 0.455872Z" fill="white"/>
</g>
<defs>
<clipPath id="clip0_1964_8892">
<rect width="98.1818" height="23" fill="white" transform="translate(0.272461)"/>
</clipPath>
</defs>
</svg>
