<svg width="65" height="40" viewBox="0 0 65 40" fill="none" xmlns="http://www.w3.org/2000/svg">
<g clip-path="url(#clip0_907_12911)">
<rect width="65" height="40" rx="3" fill="url(#paint0_linear_907_12911)"/>
<path d="M8.84082 9.89062L10.1787 12.3711L11.5166 9.89062H13.1914L11.126 13.416L13.2451 17H11.5557L10.1787 14.4707L8.80176 17H7.10254L9.22656 13.416L7.15625 9.89062H8.84082ZM15.1885 9.89062L16.5264 12.3711L17.8643 9.89062H19.5391L17.4736 13.416L19.5928 17H17.9033L16.5264 14.4707L15.1494 17H13.4502L15.5742 13.416L13.5039 9.89062H15.1885ZM21.5361 9.89062L22.874 12.3711L24.2119 9.89062H25.8867L23.8213 13.416L25.9404 17H24.251L22.874 14.4707L21.4971 17H19.7979L21.9219 13.416L19.8516 9.89062H21.5361ZM27.8838 9.89062L29.2217 12.3711L30.5596 9.89062H32.2344L30.1689 13.416L32.2881 17H30.5986L29.2217 14.4707L27.8447 17H26.1455L28.2695 13.416L26.1992 9.89062H27.8838Z" fill="white"/>
<path d="M50.6526 32.7459H44.415V21.5361H50.6527L50.6526 32.7459Z" fill="#FF5F00"/>
<path d="M44.811 27.1409C44.811 24.867 45.8757 22.8414 47.5336 21.536C46.2786 20.5464 44.7264 20.0094 43.1282 20.0117C39.1913 20.0117 36 23.2035 36 27.1409C36 31.0783 39.1913 34.2701 43.1282 34.2701C44.7265 34.2724 46.2787 33.7354 47.5337 32.7458C45.8759 31.4406 44.811 29.4149 44.811 27.1409Z" fill="#EB001B"/>
<path d="M59.0685 27.1409C59.0685 31.0783 55.8772 34.2701 51.9402 34.2701C50.3419 34.2724 48.7894 33.7353 47.5342 32.7458C49.1926 31.4404 50.2573 29.4149 50.2573 27.1409C50.2573 24.8669 49.1926 22.8414 47.5342 21.536C48.7894 20.5465 50.3418 20.0094 51.9401 20.0117C55.877 20.0117 59.0684 23.2035 59.0684 27.1409" fill="#F79E1B"/>
</g>
<defs>
<linearGradient id="paint0_linear_907_12911" x1="10.6351" y1="-9.76644" x2="-2.04046" y2="58.601" gradientUnits="userSpaceOnUse">
<stop stop-color="#FFA346"/>
<stop offset="1" stop-color="#F2E32E"/>
</linearGradient>
<clipPath id="clip0_907_12911">
<rect width="65" height="40" fill="white"/>
</clipPath>
</defs>
</svg>
