<svg
   viewBox="0 0 64 64"
   fill="none"
   version="1.1"
   xmlns="http://www.w3.org/2000/svg">
  <defs
     id="defs2" />
  <g
     id="g1"
     transform="matrix(3.1055392,0,0,2.8025679,1.3756021,11.402549)">
    <path
       fill="#C3CAD9"
       fill-rule="evenodd"
       d="m 9.02,0.678 a 2.25,2.25 0 0 0 -2.04,0 L 1.682,3.374 A 1.25,1.25 0 0 0 1,4.488 v 6.717 c 0,0.658 0.37,1.26 0.956,1.56 l 5.023,2.557 a 2.25,2.25 0 0 0 2.042,0 l 5.023,-2.557 A 1.75,1.75 0 0 0 15,11.205 V 4.488 c 0,-0.47 -0.264,-0.9 -0.683,-1.114 L 9.021,0.678 Z M 7.66,2.015 a 0.75,0.75 0 0 1 0.68,0 L 12.776,4.273 11.308,5.007 6.503,2.604 7.66,2.014 Z M 4.84,3.45 3.223,4.273 8,6.661 9.631,5.846 4.841,3.45 Z M 2.5,5.588 v 5.617 c 0,0.094 0.053,0.18 0.137,0.223 L 7.25,13.776 V 7.964 Z m 10.863,5.84 -4.613,2.348 V 7.964 L 13.5,5.589 v 5.617 a 0.25,0.25 0 0 1 -0.137,0.223 z"
       clip-rule="evenodd"
       id="path1" />
  </g>
  <g
     id="g2"
     transform="matrix(0.96602353,0,0,0.78378469,8.4716155,17.980357)">
    <path
       fill="#C3CAD9"
       d="m 42.806121,42.584188 c 0.385409,0.34001 0.890732,0.510073 1.396055,0.510073 0.505323,0 1.010645,-0.170063 1.396186,-0.510073 l 9.872157,-8.706293 c 0.771081,-0.679904 0.771081,-1.782469 0,-2.462488 -0.771082,-0.679904 -2.021291,-0.679904 -2.792241,0 l -6.501671,5.733849 V 6.5278277 c 0,-0.9616391 -0.884019,-1.7412587 -1.974431,-1.7412587 -1.090413,0 -1.974432,0.7796196 -1.974432,1.7412587 V 37.149256 l -6.50167,-5.733849 c -0.771082,-0.679904 -2.02116,-0.679904 -2.792241,0 -0.771081,0.679903 -0.771081,1.782468 0,2.462488 z"
       id="path2"
       style="stroke-width:0.123612" />
  </g>
</svg>
