<?xml version="1.0" encoding="UTF-8" standalone="no"?>
<svg
   viewBox="0 0 24 24"
   fill="none"
   version="1.1"
   id="svg1"
   xmlns="http://www.w3.org/2000/svg">
  <defs
     id="defs1" />
  <g
     id="g1"
     transform="matrix(1.4780219,0,0,1.3049786,0.445055,1.7139404)">
    <path
       fill="#c3cad9"
       fill-rule="evenodd"
       d="m 9.02,0.678 a 2.25,2.25 0 0 0 -2.04,0 L 1.682,3.374 A 1.25,1.25 0 0 0 1,4.488 v 6.717 c 0,0.658 0.37,1.26 0.956,1.56 l 5.023,2.557 a 2.25,2.25 0 0 0 2.042,0 l 5.023,-2.557 A 1.75,1.75 0 0 0 15,11.205 V 4.488 c 0,-0.47 -0.264,-0.9 -0.683,-1.114 L 9.021,0.678 Z M 7.66,2.015 a 0.75,0.75 0 0 1 0.68,0 L 12.776,4.273 11.308,5.007 6.503,2.604 7.66,2.014 Z M 4.84,3.45 3.223,4.273 8,6.661 9.631,5.846 4.841,3.45 Z M 2.5,5.588 v 5.617 c 0,0.094 0.053,0.18 0.137,0.223 L 7.25,13.776 V 7.964 Z m 10.863,5.84 -4.613,2.348 V 7.964 L 13.5,5.589 v 5.617 a 0.25,0.25 0 0 1 -0.137,0.223 z"
       clip-rule="evenodd"
       id="path1" />
  </g>
</svg>
