<svg width="65" height="40" viewBox="0 0 65 40" fill="none" xmlns="http://www.w3.org/2000/svg">
<g clip-path="url(#clip0_907_12929)">
<rect width="65" height="40" rx="3" fill="url(#paint0_linear_907_12929)"/>
<path d="M8.84082 9.89062L10.1787 12.3711L11.5166 9.89062H13.1914L11.126 13.416L13.2451 17H11.5557L10.1787 14.4707L8.80176 17H7.10254L9.22656 13.416L7.15625 9.89062H8.84082ZM15.1885 9.89062L16.5264 12.3711L17.8643 9.89062H19.5391L17.4736 13.416L19.5928 17H17.9033L16.5264 14.4707L15.1494 17H13.4502L15.5742 13.416L13.5039 9.89062H15.1885ZM21.5361 9.89062L22.874 12.3711L24.2119 9.89062H25.8867L23.8213 13.416L25.9404 17H24.251L22.874 14.4707L21.4971 17H19.7979L21.9219 13.416L19.8516 9.89062H21.5361ZM27.8838 9.89062L29.2217 12.3711L30.5596 9.89062H32.2344L30.1689 13.416L32.2881 17H30.5986L29.2217 14.4707L27.8447 17H26.1455L28.2695 13.416L26.1992 9.89062H27.8838Z" fill="white"/>
<path d="M33.7566 27.6158C33.6426 28.4707 32.9587 28.4707 32.3318 28.4707H31.9898L32.2748 26.8178C32.2748 26.7038 32.3887 26.6468 32.5027 26.6468H32.6737C33.1297 26.6468 33.5287 26.6468 33.7566 26.8748C33.7566 27.1028 33.7566 27.3308 33.7566 27.6158ZM33.4717 25.3359H31.0209C30.8499 25.3359 30.7359 25.4499 30.6789 25.6209L29.71 31.8904C29.71 32.0044 29.767 32.1184 29.9379 32.1184H31.0779C31.2488 32.1184 31.3628 32.0044 31.4198 31.8334L31.7048 30.1236C31.7048 29.9526 31.8758 29.8386 32.0468 29.8386H32.8447C34.4406 29.8386 35.3525 29.0406 35.6375 27.5018C35.7515 26.8178 35.6375 26.3049 35.3525 25.9059C34.8965 25.5639 34.2696 25.3359 33.4717 25.3359Z" fill="white"/>
<path d="M39.1135 29.8958C38.9995 30.5797 38.4865 31.0357 37.8026 31.0357C37.4606 31.0357 37.1756 30.9217 37.0047 30.6937C36.8337 30.4657 36.7767 30.1807 36.8337 29.8958C36.9476 29.2118 37.4606 28.7559 38.1446 28.7559C38.4865 28.7559 38.7715 28.8698 38.9425 29.0978C39.0565 29.2688 39.1705 29.5538 39.1135 29.8958ZM40.7094 27.6159H39.5694C39.4555 27.6159 39.3984 27.6729 39.3415 27.7869L39.2845 28.1289L39.2275 28.0149C38.9995 27.6729 38.4295 27.502 37.8596 27.502C36.5487 27.502 35.4658 28.4709 35.2378 29.8388C35.1238 30.5227 35.2948 31.1497 35.6937 31.6056C36.0357 32.0046 36.5487 32.1756 37.1756 32.1756C38.2016 32.1756 38.7715 31.4916 38.7715 31.4916L38.7145 31.8336C38.7145 31.9476 38.7715 32.0616 38.9425 32.0616H39.9684C40.1394 32.0616 40.2534 31.9476 40.3104 31.7766L40.9373 27.7869C40.9373 27.7299 40.8803 27.6159 40.7094 27.6159Z" fill="white"/>
<path d="M46.9219 27.6162H45.725C45.611 27.6162 45.497 27.6732 45.44 27.7872L43.8442 30.181L43.1602 27.9012C43.1032 27.7302 42.9892 27.6732 42.8182 27.6732H41.6783C41.5643 27.6732 41.4504 27.7872 41.5073 27.9582L42.8182 31.7199L41.6213 33.4297C41.5073 33.5437 41.6213 33.7717 41.7923 33.7717H42.9892C43.1032 33.7717 43.2172 33.7147 43.2742 33.6007L47.1499 27.9582C47.2069 27.7872 47.0929 27.6162 46.9219 27.6162Z" fill="white"/>
<path d="M51.0828 27.6158C50.9688 28.4707 50.2849 28.4707 49.6579 28.4707H49.3159L49.6009 26.8178C49.6009 26.7038 49.7149 26.6468 49.8289 26.6468H49.9999C50.4559 26.6468 50.8548 26.6468 51.0828 26.8748C51.1398 27.1028 51.1398 27.3308 51.0828 27.6158ZM50.7978 25.3359H48.347C48.1761 25.3359 48.0621 25.4499 48.0051 25.6209L47.0361 31.8904C47.0361 32.0044 47.0931 32.1184 47.2641 32.1184H48.518C48.632 32.1184 48.746 32.0614 48.746 31.8904L49.031 30.1236C49.031 29.9526 49.202 29.8386 49.3729 29.8386H50.1709C51.7668 29.8386 52.6787 29.0406 52.9637 27.5018C53.0777 26.8178 52.9637 26.3049 52.6787 25.9059C52.2797 25.5639 51.6528 25.3359 50.7978 25.3359Z" fill="white"/>
<path d="M56.4982 29.8958C56.3842 30.5797 55.8713 31.0357 55.1874 31.0357C54.8454 31.0357 54.5604 30.9217 54.3894 30.6937C54.2184 30.4657 54.1614 30.1807 54.2184 29.8958C54.3324 29.2118 54.8454 28.7559 55.5293 28.7559C55.8713 28.7559 56.1563 28.8698 56.3273 29.0978C56.4413 29.2688 56.5552 29.5538 56.4982 29.8958ZM58.0941 27.6159H56.9542C56.8402 27.6159 56.7832 27.6729 56.7262 27.7869L56.6692 28.1289L56.6122 28.0149C56.3843 27.6729 55.8143 27.502 55.2444 27.502C53.9335 27.502 52.8505 28.4709 52.6226 29.8388C52.5086 30.5227 52.6795 31.1497 53.0785 31.6056C53.4205 32.0046 53.9334 32.1756 54.5604 32.1756C55.5863 32.1756 56.1563 31.4916 56.1563 31.4916L56.0993 31.8336C56.0993 31.9476 56.1563 32.0616 56.3273 32.0616H57.3532C57.5242 32.0616 57.6382 31.9476 57.6951 31.7766L58.3221 27.7869C58.3221 27.7299 58.2081 27.6159 58.0941 27.6159Z" fill="white"/>
<path d="M59.4615 25.5069L58.4355 31.8904C58.4355 32.0044 58.4926 32.1184 58.6635 32.1184H59.6895C59.8604 32.1184 59.9744 32.0044 60.0314 31.8334L61.0003 25.5639C61.0003 25.4499 60.9433 25.3359 60.7724 25.3359H59.6325C59.5755 25.3359 59.5185 25.4499 59.4615 25.5069Z" fill="white"/>
</g>
<defs>
<linearGradient id="paint0_linear_907_12929" x1="11.7029" y1="-9.56847" x2="-0.715751" y2="57.4132" gradientUnits="userSpaceOnUse">
<stop stop-color="#5380F5"/>
<stop offset="1" stop-color="#3C6DEE"/>
</linearGradient>
<clipPath id="clip0_907_12929">
<rect width="65" height="40" fill="white"/>
</clipPath>
</defs>
</svg>
