
<svg
   version="1.1"
   x="0px"
   y="0px"
   viewBox="0 0 492 492"
   style="enable-background:new 0 0 492 492;"
   xml:space="preserve"

   xmlns="http://www.w3.org/2000/svg">
<g
   id="Master_Layer_2">
</g>
<g
   id="Layer_1"
   transform="matrix(1.8379823,0,0,1.8197446,-204.11196,-38.872385)">
	<g
   id="g11">
		<g
   id="g10">
			<g
   id="g9">
				<g
   id="g8">
					<g
   id="g1">
						<path
   style="clip-rule:evenodd;fill:#c3cad9;fill-rule:evenodd"
   d="m 254.689,279.344 c -1.512,0 -3.024,-0.6 -4.152,-1.776 -2.208,-2.304 -2.112,-5.952 0.192,-8.136 11.424,-10.92 20.88,-25.176 27.36,-41.256 6.84,-16.944 10.32,-35.28 10.32,-54.456 0,-19.176 -3.48,-37.488 -10.32,-54.456 -6.48,-16.08 -15.96,-30.336 -27.36,-41.256 -2.304,-2.208 -2.376,-5.856 -0.192,-8.136 2.208,-2.304 5.856,-2.376 8.136,-0.192 12.576,12.048 22.992,27.696 30.096,45.264 7.392,18.336 11.16,38.112 11.16,58.752 0,20.64 -3.744,40.416 -11.16,58.752 -7.104,17.568 -17.496,33.24 -30.096,45.264 -1.104,1.104 -2.544,1.632 -3.984,1.632 z"
   id="path1" />
					</g>
					<g
   id="g2">
						<path
   style="clip-rule:evenodd;fill:#c3cad9;fill-rule:evenodd"
   d="m 246.265,279.68 c -3.192,0 -5.76,-2.568 -5.76,-5.76 V 73.496 c 0,-3.192 2.568,-5.76 5.76,-5.76 3.192,0 5.76,2.568 5.76,5.76 v 200.448 c 0,3.168 -2.567,5.736 -5.76,5.736 z"
   id="path2" />
					</g>
					<g
   id="g3">
						<path
   style="clip-rule:evenodd;fill:#c3cad9;fill-rule:evenodd"
   d="m 237.841,279.344 c -1.44,0 -2.856,-0.528 -3.984,-1.608 -12.576,-12.048 -22.992,-27.696 -30.096,-45.264 -7.392,-18.336 -11.16,-38.112 -11.16,-58.752 0,-20.664 3.744,-40.416 11.16,-58.752 7.104,-17.568 17.496,-33.24 30.096,-45.264 2.304,-2.208 5.952,-2.112 8.136,0.192 2.208,2.304 2.112,5.952 -0.192,8.136 -11.424,10.92 -20.88,25.176 -27.36,41.256 -6.84,16.944 -10.32,35.28 -10.32,54.456 0,19.176 3.48,37.488 10.32,54.456 6.48,16.08 15.96,30.336 27.36,41.256 2.304,2.208 2.376,5.856 0.192,8.136 -1.128,1.152 -2.639,1.752 -4.152,1.752 z"
   id="path3" />
					</g>
					<g
   id="g4">
						<path
   style="clip-rule:evenodd;fill:#c3cad9;fill-rule:evenodd"
   d="m 323.785,242.984 c -1.056,0 -2.112,-0.288 -3.048,-0.888 -10.368,-6.504 -21.888,-11.568 -34.296,-15.048 -12.864,-3.624 -26.376,-5.448 -40.176,-5.448 -13.776,0 -27.312,1.824 -40.176,5.448 -12.408,3.48 -23.928,8.544 -34.296,15.048 -2.688,1.68 -6.24,0.888 -7.944,-1.824 -1.68,-2.688 -0.888,-6.24 1.824,-7.944 11.28,-7.08 23.832,-12.6 37.296,-16.368 13.872,-3.912 28.44,-5.88 43.296,-5.88 14.832,0 29.4,1.968 43.296,5.88 13.464,3.792 26.016,9.288 37.296,16.368 2.688,1.68 3.504,5.256 1.824,7.944 -1.104,1.752 -2.976,2.712 -4.896,2.712 z"
   id="path4" />
					</g>
					<g
   id="g5">
						<path
   style="clip-rule:evenodd;fill:#c3cad9;fill-rule:evenodd"
   d="M 346.49,179.48 H 146.042 c -3.192,0 -5.76,-2.568 -5.76,-5.76 0,-3.192 2.568,-5.76 5.76,-5.76 H 346.49 c 3.192,0 5.76,2.568 5.76,5.76 -10e-4,3.192 -2.569,5.76 -5.76,5.76 z"
   id="path5" />
					</g>
					<g
   id="g6">
						<path
   style="clip-rule:evenodd;fill:#c3cad9;fill-rule:evenodd"
   d="m 246.265,136.448 c -14.736,0 -29.184,-1.944 -42.984,-5.808 -13.368,-3.72 -25.848,-9.168 -37.104,-16.152 -2.712,-1.68 -3.528,-5.232 -1.848,-7.944 1.68,-2.712 5.232,-3.528 7.944,-1.848 10.32,6.408 21.792,11.4 34.128,14.832 12.792,3.576 26.208,5.376 39.888,5.376 13.68,0 27.096,-1.8 39.888,-5.376 12.312,-3.432 23.808,-8.424 34.128,-14.832 2.712,-1.68 6.264,-0.84 7.944,1.848 1.68,2.712 0.84,6.264 -1.848,7.944 -11.256,6.984 -23.736,12.432 -37.104,16.152 -13.847,3.864 -28.296,5.808 -43.032,5.808 z"
   id="path6" />
					</g>
					<g
   id="g7">
						<path
   style="clip-rule:evenodd;fill:#c3cad9;fill-rule:evenodd"
   d="m 246.265,279.704 c -14.304,0 -28.176,-2.808 -41.256,-8.328 -12.624,-5.328 -23.952,-12.984 -33.696,-22.704 -9.744,-9.72 -17.376,-21.072 -22.704,-33.696 -5.52,-13.08 -8.328,-26.952 -8.328,-41.256 0,-14.304 2.808,-28.176 8.328,-41.256 5.328,-12.624 12.984,-23.952 22.704,-33.696 9.72,-9.744 21.072,-17.376 33.696,-22.704 13.08,-5.52 26.952,-8.328 41.256,-8.328 14.304,0 28.176,2.808 41.256,8.328 12.624,5.328 23.952,12.984 33.696,22.704 9.744,9.72 17.376,21.072 22.704,33.696 5.52,13.08 8.328,26.952 8.328,41.256 0,14.304 -2.808,28.176 -8.328,41.256 -5.328,12.624 -12.984,23.952 -22.704,33.696 -9.72,9.744 -21.072,17.376 -33.696,22.704 -13.079,5.52 -26.952,8.328 -41.256,8.328 z m 0,-200.448 c -12.744,0 -25.128,2.496 -36.768,7.416 -11.256,4.752 -21.36,11.568 -30.024,20.256 -8.688,8.688 -15.48,18.792 -20.256,30.024 -4.92,11.64 -7.416,24.024 -7.416,36.768 0,12.744 2.496,25.128 7.416,36.768 4.752,11.256 11.568,21.36 20.256,30.024 8.688,8.688 18.792,15.48 30.024,20.256 11.64,4.92 24.024,7.416 36.768,7.416 12.744,0 25.128,-2.496 36.768,-7.416 11.256,-4.752 21.36,-11.568 30.024,-20.256 8.688,-8.688 15.48,-18.792 20.256,-30.024 4.92,-11.64 7.416,-24.024 7.416,-36.768 0,-12.744 -2.496,-25.128 -7.416,-36.768 -4.752,-11.256 -11.568,-21.36 -20.256,-30.024 -8.688,-8.688 -18.792,-15.48 -30.024,-20.256 -11.64,-4.92 -24.024,-7.416 -36.768,-7.416 z"
   id="path7" />
					</g>
				</g>

			</g>
		</g>
	</g>
</g>
	<g
   id="g12"
   transform="matrix(16.839848,0,0,14.935107,188.77898,16.557692)">
		<path
   d="m 7.932979,8.7548817 h 3.135028 v 6.7047953 h 2.090018 V 8.7548817 h 3.135028 V 7.6374156 L 12.113016,3.1675497 7.932979,7.6374156 Z"
   fill="#c3cad9"
   id="path11"
   style="stroke-width:1.08063" />
	</g>
</svg>
