<svg xmlns="http://www.w3.org/2000/svg" width="30" height="30" viewBox="0 0 30 30" fill="none">
    <path fill-rule="evenodd" clip-rule="evenodd" d="M8 17H10C10.55 17 11 16.55 11 16V14C11 13.45 10.55 13 10 13H8C7.45 13 7 13.45 7 14V16C7 16.55 7.45 17 8 17ZM8 22H10C10.55 22 11 21.55 11 21V19C11 18.45 10.55 18 10 18H8C7.45 18 7 18.45 7 19V21C7 21.55 7.45 22 8 22ZM8 12H10C10.55 12 11 11.55 11 11V9C11 8.45 10.55 8 10 8H8C7.45 8 7 8.45 7 9V11C7 11.55 7.45 12 8 12ZM13 17H23C23.55 17 24 16.55 24 16V14C24 13.45 23.55 13 23 13H13C12.45 13 12 13.45 12 14V16C12 16.55 12.45 17 13 17ZM13 22H23C23.55 22 24 21.55 24 21V19C24 18.45 23.55 18 23 18H13C12.45 18 12 18.45 12 19V21C12 21.55 12.45 22 13 22ZM12 9V11C12 11.55 12.45 12 13 12H23C23.55 12 24 11.55 24 11V9C24 8.45 23.55 8 23 8H13C12.45 8 12 8.45 12 9Z" fill="#29CC39"/>
</svg>