<svg width="29" height="28" viewBox="0 0 29 28" fill="none" xmlns="http://www.w3.org/2000/svg">
<rect x="0.402344" width="28" height="28" rx="14" fill="#FF4000"/>
<path fill-rule="evenodd" clip-rule="evenodd" d="M9.73503 14C9.73503 14.5133 10.155 14.9333 10.6684 14.9333H18.135C18.6484 14.9333 19.0684 14.5133 19.0684 14C19.0684 13.4866 18.6484 13.0666 18.135 13.0666H10.6684C10.155 13.0666 9.73503 13.4866 9.73503 14ZM14.4017 4.66663C9.24969 4.66663 5.06836 8.84796 5.06836 14C5.06836 19.152 9.24969 23.3333 14.4017 23.3333C19.5537 23.3333 23.735 19.152 23.735 14C23.735 8.84796 19.5537 4.66663 14.4017 4.66663ZM14.4017 21.4666C10.2857 21.4666 6.93503 18.116 6.93503 14C6.93503 9.88396 10.2857 6.53329 14.4017 6.53329C18.5177 6.53329 21.8684 9.88396 21.8684 14C21.8684 18.116 18.5177 21.4666 14.4017 21.4666Z" fill="white"/>
</svg>
