<svg width="30" height="30" viewBox="0 0 30 30" fill="none" xmlns="http://www.w3.org/2000/svg">
<path fill-rule="evenodd" clip-rule="evenodd" d="M22.5 11H20V9C20 7.9 19.1 7 18 7H6C4.9 7 4 7.9 4 9V18C4 19.1 4.9 20 6 20C6 21.66 7.34 23 9 23C10.66 23 12 21.66 12 20H18C18 21.66 19.34 23 21 23C22.66 23 24 21.66 24 20H25C25.55 20 26 19.55 26 19V15.67C26 15.24 25.86 14.82 25.6 14.47L23.3 11.4C23.11 11.15 22.81 11 22.5 11ZM9 21C8.45 21 8 20.55 8 20C8 19.45 8.45 19 9 19C9.55 19 10 19.45 10 20C10 20.55 9.55 21 9 21ZM22.5 12.5L24.46 15H20V12.5H22.5ZM21 21C20.45 21 20 20.55 20 20C20 19.45 20.45 19 21 19C21.55 19 22 19.45 22 20C22 20.55 21.55 21 21 21Z" fill="#C3CAD9"/>
</svg>
