<svg width="28" height="30" viewBox="0 0 28 30" fill="none" xmlns="http://www.w3.org/2000/svg">
<path fill-rule="evenodd" clip-rule="evenodd" d="M19.838 6H7.28371C6.28833 6 5.49023 6.9 5.49023 8V22C5.49023 23.1 6.28833 24 7.28371 24H19.838C20.8244 24 21.6315 23.1 21.6315 22V8C21.6315 6.9 20.8244 6 19.838 6ZM17.1478 16H14.4576V19C14.4576 19.55 14.0541 20 13.5609 20C13.0677 20 12.6641 19.55 12.6641 19V16H9.97392C9.48071 16 9.07718 15.55 9.07718 15C9.07718 14.45 9.48071 14 9.97392 14H12.6641V11C12.6641 10.45 13.0677 10 13.5609 10C14.0541 10 14.4576 10.45 14.4576 11V14H17.1478C17.641 14 18.0446 14.45 18.0446 15C18.0446 15.55 17.641 16 17.1478 16Z" fill="#C3CAD9"/>
</svg>
