<svg
   xml:space="preserve"
   width="655.359"
   height="655.359"
   style="shape-rendering:geometricPrecision;text-rendering:geometricPrecision;image-rendering:optimizeQuality;fill-rule:evenodd;clip-rule:evenodd"
   viewBox="0 0 6.827 6.827"
   version="1.1"
   id="svg4"
   xmlns="http://www.w3.org/2000/svg"
>
	<defs
   id="defs1">
		<style
   id="style1">.fil2{fill:#C3CAD9;fill-rule:nonzero}</style>
	</defs>
	<path
   style="fill:none"
   d="M0 0h6.827v6.827H0z"
   id="path1" />
	<g
   id="Layer_x0020_1">
		<path
   style="fill:none"
   d="M0 0h6.827v6.827H0z"
   id="path2" />
		<path
   class="fil2"
   d="m 2.0504768,0.93066826 h 2.7906167 c 0.5374618,0 1.0252312,0.21649824 1.379616,0.56573054 a 1.9471548,1.9188445 0 0 1 0,2.7191148 C 5.8676324,4.5634572 5.3785553,4.7786668 4.8410935,4.7786668 H 2.7657849 L 1.5064766,6.0196657 A 0.13992314,0.13788876 0 0 1 1.2750149,5.8804883 L 1.5888613,4.7232535 A 1.9615394,1.93302 0 0 1 0.09809135,2.8546675 c 0,-0.5283588 0.2196924,-1.0103251 0.57407718,-1.3582687 C 1.0252456,1.1471665 1.5143227,0.93066826 2.0504768,0.93066826 Z M 4.8410935,1.2051571 H 2.0504768 c -0.4590002,0 -0.8774619,0.18557 -1.18084665,0.4845437 A 1.664693,1.6404896 0 0 0 0.77809165,3.9204059 1.67777,1.6533764 0 0 0 1.7980921,4.4861364 c 0.074538,0.01933 0.1176924,0.094074 0.098078,0.1675284 L 1.6764767,5.462956 2.607554,4.5454157 a 0.13861544,0.13660008 0 0 1 0.1006922,-0.041237 h 2.1328471 c 0.4603079,0 0.8787697,-0.18557 1.1821544,-0.4845437 a 1.6686162,1.6443557 0 0 0 0,-2.3286448 1.6686162,1.6443557 0 0 0 -1.1821542,-0.4858331 z"
   id="path3"
   style="stroke-width:1.29815" />
		<path
   class="fil2"
   d="m 1.6594767,3.0956507 0.2419232,-0.023197 c 0.014384,0.079898 0.043154,0.1391775 0.088922,0.1765492 0.044462,0.037372 0.1046158,0.055414 0.179154,0.055414 0.07977,0 0.1399232,-0.015464 0.1804616,-0.04897 A 0.15038468,0.1481982 0 0 0 2.4114001,3.1381771 0.1111539,0.1095378 0 0 0 2.3852462,3.0647224 0.19876932,0.19587936 0 0 0 2.2963231,3.0131752 2.8690782,2.8273639 0 0 0 2.0975537,2.9603393 0.67084646,0.66109285 0 0 1 1.8177075,2.8404921 0.31907706,0.31443792 0 0 1 1.7575536,2.4229597 0.33476938,0.32990208 0 0 1 1.9105537,2.3005351 0.61853874,0.60954565 0 0 1 2.1524769,2.2592978 c 0.1543077,0 0.2706924,0.033506 0.3478463,0.099228 0.078462,0.067011 0.1190001,0.1546416 0.1229231,0.2667568 l -0.2484616,0.011598 c -0.00916,-0.063146 -0.032692,-0.1082491 -0.068,-0.1353114 -0.034,-0.025774 -0.086308,-0.039949 -0.1569231,-0.039949 a 0.28246166,0.27835488 0 0 0 -0.1700001,0.043815 0.08892312,0.08763024 0 0 0 -0.03923,0.074744 c 0,0.028351 0.013076,0.052836 0.037924,0.073454 0.031384,0.025774 0.1072304,0.052836 0.2275386,0.081187 0.1203078,0.02835 0.2092308,0.056702 0.268077,0.086341 a 0.3478463,0.34278888 0 0 1 0.1359993,0.1237146 0.366154,0.3608304 0 0 1 0.048384,0.193302 0.35961554,0.354387 0 0 1 -0.2249232,0.3286134 0.69307724,0.68300041 0 0 1 -0.2667693,0.045104 c -0.1556155,0 -0.2746155,-0.036084 -0.3583079,-0.1069605 A 0.46815406,0.46134744 0 0 1 1.6594767,3.0956507 Z M 2.8638618,3.4899868 V 2.2786276 H 3.2352466 L 3.4575544,3.1046715 3.6785545,2.2799163 H 4.0499393 V 3.4899868 H 3.821093 V 2.5363636 L 3.5778621,3.4899868 H 3.3372466 L 3.0940157,2.5363636 V 3.4899868 Z M 4.2343239,3.0956507 4.4749395,3.072454 c 0.014384,0.079898 0.044462,0.1391775 0.088924,0.1765492 0.044462,0.037372 0.1046157,0.055414 0.1791539,0.055414 0.07977,0 0.1399232,-0.015464 0.1804616,-0.04897 A 0.15038468,0.1481982 0 0 0 4.9849397,3.1381771 0.1111539,0.1095378 0 0 0 4.9587858,3.0647224 0.19876932,0.19587936 0 0 0 4.8698627,3.0131752 2.8690782,2.8273639 0 0 0 4.6710934,2.9603393 0.67084646,0.66109285 0 0 1 4.3912471,2.8404921 0.31907706,0.31443792 0 0 1 4.3310932,2.4229597 0.33476938,0.32990208 0 0 1 4.4840933,2.3005351 0.61853874,0.60954565 0 0 1 4.7260165,2.2592978 c 0.1543078,0 0.2706924,0.033506 0.3478463,0.099228 0.078462,0.067011 0.1190001,0.1546416 0.1229231,0.2667568 l -0.2484616,0.011598 c -0.00916,-0.063146 -0.032692,-0.1082491 -0.068,-0.1353114 -0.034,-0.025774 -0.086308,-0.039949 -0.1569232,-0.039949 a 0.28246166,0.27835488 0 0 0 -0.1700001,0.043815 0.08892312,0.08763024 0 0 0 -0.03923,0.074744 c 0,0.028351 0.013076,0.052836 0.037924,0.073454 0.031384,0.025774 0.1072304,0.052836 0.2275386,0.081187 0.1216154,0.02835 0.2092308,0.056702 0.268077,0.086341 a 0.3478463,0.34278888 0 0 1 0.1359995,0.1237146 0.366154,0.3608304 0 0 1 0.048384,0.193302 0.35961554,0.354387 0 0 1 -0.2236155,0.3286134 0.69307724,0.68300041 0 0 1 -0.268077,0.045104 c -0.1556155,0 -0.2746155,-0.036084 -0.3583079,-0.1069605 a 0.46815406,0.46134744 0 0 1 -0.14777,-0.3092838 z"
   id="path4"
   style="stroke-width:1.29815" /></g></svg>
