<svg
   fill="#C3CAD9"
   viewBox="0 0 1024 1024"
   version="1.1"
   id="svg1"
   xmlns="http://www.w3.org/2000/svg"
   >
  <defs
     id="defs1" />

  <path
     d="M 439.74134,556.66767 372.38976,485.9095 c -17.9289,-18.83627 -48.05029,-19.86678 -67.2771,-2.30124 -19.22681,17.56555 -20.27869,47.07428 -2.34896,65.91055 l 68.48463,71.94938 -0.13221,0.12461 36.39588,36.92322 c 16.43768,16.67603 43.56158,17.14005 60.58336,1.03626 l 29.86282,-28.25277 6.85775,-6.2651 -0.1113,-0.11723 210.71333,-199.3508 c 18.91803,-17.8984 19.44438,-47.43254 1.17574,-65.9663 -18.26865,-18.53375 -48.41599,-19.04943 -67.33401,-1.15185 L 439.74218,556.66767 Z m 68.77752,366.37924 c -236.62802,0 -428.452615,-187.9282 -428.452615,-419.74976 0,-231.82156 191.824595,-419.74976 428.452615,-419.74976 236.62802,0 428.45262,187.9282 428.45262,419.74976 0,231.82156 -191.8246,419.74976 -428.45262,419.74976 z"
     id="path1"
     style="stroke-width:0.828279" />
</svg>
