<svg width="30" height="30" viewBox="0 0 30 30" fill="none" xmlns="http://www.w3.org/2000/svg">
<path fill-rule="evenodd" clip-rule="evenodd" d="M9.64352 8.49119C9.56493 8.22173 9.72349 7.94039 9.99469 7.86807L16.5095 6.13078C16.7793 6.05884 17.0557 6.22177 17.1234 6.49263L17.879 9.51485C17.9459 9.78275 18.2174 9.94563 18.4853 9.87865L21.5152 9.12119C21.7831 9.05422 22.0545 9.2171 22.1215 9.48499L23.8815 16.5251C23.9475 16.7889 23.7904 17.0571 23.528 17.1287L13.4742 19.8707C13.2111 19.9424 12.939 19.7901 12.8627 19.5283L9.64352 8.49119ZM6.19738 9.82998L9.26161 20.5548C8.49815 21.0986 8.00024 21.9911 8.00024 22.9999C8.00024 24.6568 9.34338 25.9999 11.0002 25.9999C12.4939 25.9999 13.7326 24.9083 13.9621 23.4794L26.275 19.9614C26.806 19.8097 27.1135 19.2562 26.9618 18.7252C26.81 18.1942 26.2565 17.8867 25.7255 18.0384L13.6005 21.5027C13.1111 20.6545 12.2186 20.0682 11.1847 20.0055L7.96176 8.7252C7.86358 8.38157 7.58948 8.11646 7.24277 8.02978L3.24277 7.02978C2.70698 6.89583 2.16404 7.22159 2.03009 7.75739C1.89615 8.29318 2.22191 8.83612 2.7577 8.97006L6.19738 9.82998Z" fill="#FF6633"/>
</svg>
