
<svg
   fill="#C3CAD9"
   viewBox="0 0 52 52"
   enable-background="new 0 0 52 52"
   xml:space="preserve"
   version="1.1"
   xmlns="http://www.w3.org/2000/svg"
   >
<path
   d="m 44.409351,16.449445 h -5.20732 l 2.243153,-7.7602289 v -0.145051 c 0,-0.290102 -0.240337,-0.580204 -0.640901,-0.580204 h -4.165856 c -0.32045,0 -0.560788,0.2175765 -0.640901,0.5076785 L 33.754373,16.52197 H 23.339732 L 25.582885,8.7617416 V 8.5441651 c 0,-0.290102 -0.240338,-0.580204 -0.640901,-0.580204 h -4.165856 c -0.32045,0 -0.560788,0.2175765 -0.640901,0.5076785 l -2.323266,7.9778054 h -5.768108 c -0.320451,0 -0.560789,0.145051 -0.640901,0.435153 l -1.041465,3.55375 v 0.145051 c 0,0.290102 0.240338,0.580204 0.640902,0.580204 h 5.447657 l -2.563603,9.065688 H 8.2785592 c -0.3204505,0 -0.5607884,0.145051 -0.640901,0.435153 l -1.0414641,3.408698 v 0.145051 c 0,0.290102 0.2403379,0.580204 0.640901,0.580204 h 5.2874329 l -2.243153,7.90528 v 0.145051 c 0,0.290102 0.240338,0.580204 0.640901,0.580204 h 4.165856 c 0.32045,0 0.560788,-0.145051 0.640901,-0.507678 l 2.323266,-8.122857 h 10.334528 l -2.243153,7.832755 v 0.145051 c 0,0.290102 0.240338,0.580204 0.640901,0.580204 h 4.165856 c 0.32045,0 0.560788,-0.145051 0.640901,-0.507679 l 2.243153,-8.122856 h 5.687997 c 0.32045,0 0.560788,-0.145051 0.640901,-0.507679 l 1.041464,-3.553749 v -0.145051 c 0,-0.290102 -0.240338,-0.580204 -0.640901,-0.580204 H 35.1964 l 2.643716,-9.065688 h 5.527771 c 0.320451,0 0.560789,-0.145051 0.640901,-0.507679 l 1.041464,-3.55375 v -0.145051 c 0,0 -0.32045,-0.217576 -0.640901,-0.217576 z M 29.748742,30.229291 H 19.414213 l 2.563604,-9.065688 h 10.334529 z"
   id="path1"
   style="stroke-width:0.762247" />
</svg>
