<?xml version="1.0" encoding="UTF-8"?>
<svg xmlns="http://www.w3.org/2000/svg" xmlns:xlink="http://www.w3.org/1999/xlink" width="155px" height="100px" viewBox="0 0 154 100" version="1.1">
    <g id="surface1">
        <path style=" stroke:none;fill-rule:nonzero;fill:rgb(87.058824%,59.607843%,0%);fill-opacity:1;" d="M 8.285156 0.00390625 L 145.710938 0.00390625 C 147.984375 0.00390625 150.058594 0.945312 151.558594 2.453125 C 153.066406 3.960938 154 6.046875 154 8.328125 L 154 61.492188 C 154 63.769531 153.0625 65.851562 151.558594 67.363281 C 150.058594 68.871094 147.980469 69.8125 145.710938 69.8125 L 8.285156 69.8125 C 6.015625 69.8125 3.941406 68.875 2.4375 67.367188 L 2.378906 67.300781 C 0.914062 65.800781 0 63.746094 0 61.492188 L 0 8.328125 C 0 6.042969 0.933594 3.960938 2.433594 2.453125 C 3.941406 0.9375 6.011719 0.00390625 8.285156 0.00390625 Z M 8.285156 0.00390625 "/>
        <path style=" stroke:none;fill-rule:nonzero;fill:rgb(100%,100%,100%);fill-opacity:1;" d="M 145.710938 2.003906 L 8.285156 2.003906 C 6.554688 2.003906 4.976562 2.714844 3.839844 3.855469 C 2.699219 5.003906 1.992188 6.585938 1.992188 8.328125 L 1.992188 61.492188 C 1.992188 63.199219 2.679688 64.761719 3.789062 65.902344 L 3.84375 65.953125 C 4.988281 67.101562 6.566406 67.816406 8.285156 67.816406 L 145.710938 67.816406 C 147.429688 67.816406 149.007812 67.097656 150.148438 65.949219 C 151.296875 64.800781 152.007812 63.21875 152.007812 61.492188 L 152.007812 8.328125 C 152.007812 6.601562 151.296875 5.011719 150.152344 3.867188 C 149.015625 2.71875 147.441406 2.003906 145.710938 2.003906 Z M 145.710938 2.003906 "/>
        <path style=" stroke:none;fill-rule:nonzero;fill:rgb(100%,69.803922%,2.352941%);fill-opacity:1;" d="M 145.710938 2.003906 L 135.160156 2.003906 L 78.382812 67.816406 L 103.5625 67.816406 L 152.007812 11.960938 L 152.007812 8.328125 C 152.007812 6.601562 151.296875 5.011719 150.152344 3.867188 C 149.015625 2.71875 147.441406 2.003906 145.710938 2.003906 Z M 117.167969 2.003906 L 95.09375 2.003906 L 38.171875 67.816406 L 59.789062 67.816406 L 94.59375 27.6875 Z M 75.0625 2.003906 L 49.570312 2.003906 L 1.992188 56.863281 L 1.992188 61.492188 C 1.992188 63.199219 2.679688 64.761719 3.789062 65.902344 L 3.84375 65.953125 C 4.988281 67.101562 6.566406 67.816406 8.285156 67.816406 L 17.980469 67.816406 Z M 31.367188 2.003906 L 8.285156 2.003906 C 6.554688 2.003906 4.976562 2.714844 3.839844 3.855469 C 2.699219 5.003906 1.992188 6.585938 1.992188 8.328125 L 1.992188 35.867188 Z M 123.753906 67.816406 L 145.710938 67.816406 C 147.429688 67.816406 149.007812 67.097656 150.148438 65.949219 C 151.296875 64.800781 152.007812 63.21875 152.007812 61.492188 L 152.007812 35.242188 Z M 123.753906 67.816406 "/>
        <path style=" stroke:none;fill-rule:evenodd;fill:rgb(10.196078%,10.196078%,10.196078%);fill-opacity:1;" d="M 19.566406 95.949219 L 27.515625 95.949219 L 27.515625 69.828125 L 39.332031 69.828125 L 39.332031 95.949219 L 47.28125 95.949219 L 47.28125 99.996094 L 19.566406 99.996094 Z M 100.5625 95.949219 L 108.511719 95.949219 L 108.511719 69.8125 L 120.324219 69.8125 L 120.324219 95.949219 L 128.273438 95.949219 L 128.273438 99.996094 L 100.5625 99.996094 Z M 100.5625 95.949219 "/>
        <path style=" stroke:none;fill-rule:nonzero;fill:rgb(87.058824%,59.607843%,0%);fill-opacity:1;" d="M 15.328125 6.71875 L 138.671875 6.71875 C 140.894531 6.71875 142.917969 7.640625 144.382812 9.113281 C 145.859375 10.59375 146.773438 12.632812 146.773438 14.855469 L 146.773438 54.964844 C 146.773438 57.183594 145.851562 59.222656 144.382812 60.695312 C 142.914062 62.171875 140.882812 63.097656 138.671875 63.097656 L 15.328125 63.097656 C 13.109375 63.097656 11.082031 62.179688 9.613281 60.703125 C 8.144531 59.230469 7.226562 57.195312 7.226562 54.964844 L 7.226562 14.855469 C 7.226562 12.625 8.140625 10.585938 9.605469 9.113281 C 11.074219 7.636719 13.097656 6.71875 15.328125 6.71875 Z M 15.328125 6.71875 "/>
        <path style=" stroke:none;fill-rule:evenodd;fill:rgb(100%,100%,100%);fill-opacity:1;" d="M 15.328125 7.625 L 138.671875 7.625 C 142.628906 7.625 145.871094 10.914062 145.871094 14.855469 L 145.871094 54.964844 C 145.871094 58.90625 142.597656 62.191406 138.671875 62.191406 L 15.328125 62.191406 C 11.402344 62.191406 8.128906 58.941406 8.128906 54.964844 L 8.128906 14.855469 C 8.128906 10.878906 11.371094 7.625 15.328125 7.625 Z M 15.328125 7.625 "/>
        <path style=" stroke:none;fill-rule:evenodd;fill:rgb(0%,0%,0%);fill-opacity:1;" d="M 115.53125 17.089844 C 116.839844 17.089844 117.898438 18.152344 117.898438 19.464844 C 117.898438 20.773438 116.839844 21.839844 115.53125 21.839844 C 114.230469 21.839844 113.167969 20.773438 113.167969 19.464844 C 113.167969 18.152344 114.230469 17.089844 115.53125 17.089844 Z M 118.226562 34.863281 C 118.625 34.25 119.078125 33.644531 119.664062 33 L 119.839844 32.820312 L 113.742188 30.277344 L 115.34375 32.816406 C 115.476562 33.027344 115.53125 33.257812 115.519531 33.488281 L 115.335938 37.761719 L 113.042969 37.652344 L 113.207031 33.742188 L 110.96875 30.171875 L 109.269531 37.464844 L 106.917969 37.375 L 109.058594 28.195312 L 103.632812 25.804688 L 103.972656 23.992188 L 106.140625 24.921875 L 107.359375 22.761719 C 107.527344 22.460938 107.820312 22.253906 108.160156 22.195312 L 108.160156 22.191406 L 111.5625 21.605469 C 111.808594 21.5625 112.046875 21.601562 112.257812 21.703125 L 116.433594 23.488281 C 116.789062 23.640625 117.027344 23.957031 117.105469 24.308594 L 118.359375 30.089844 C 118.378906 30.179688 118.386719 30.273438 118.386719 30.359375 L 121.160156 31.429688 L 123.28125 29.199219 L 123.304688 29.1875 L 123.339844 29.179688 C 125.398438 28.671875 127.15625 34.640625 127.5 36.066406 L 127.535156 36.199219 C 127.789062 37.253906 127.902344 37.714844 127.695312 37.925781 C 127.527344 38.09375 127.183594 38.078125 126.570312 38.066406 C 126.292969 38.054688 125.949219 38.042969 125.539062 38.050781 C 124.253906 38.066406 122.988281 38.066406 121.746094 38.039062 C 120.503906 38.023438 119.285156 37.988281 118.097656 37.929688 C 117.804688 37.914062 117.558594 37.914062 117.367188 37.910156 C 117.003906 37.90625 116.804688 37.90625 116.722656 37.816406 C 116.550781 37.617188 117.867188 35.425781 118.226562 34.863281 Z M 111.097656 24.027344 L 109.878906 26.585938 L 108.25 25.855469 L 109.085938 24.375 Z M 114.117188 28.464844 L 115.097656 25.886719 L 115.820312 29.21875 Z M 114.117188 28.464844 "/>
        <path style=" stroke:none;fill-rule:nonzero;fill:rgb(0%,0%,0%);fill-opacity:1;" d="M 29.367188 36.390625 C 28.550781 36.390625 27.8125 36.316406 27.15625 36.171875 C 26.488281 36.027344 25.894531 35.804688 25.386719 35.507812 C 23.167969 34.21875 22.515625 31.820312 22.515625 29.386719 L 22.5625 20.097656 L 27.15625 20.097656 L 27.113281 28.933594 C 27.109375 29.449219 27.128906 29.910156 27.175781 30.308594 C 27.238281 30.847656 27.363281 31.472656 27.683594 31.917969 C 28.25 32.691406 29.773438 32.726562 30.535156 32.265625 C 31.152344 31.894531 31.351562 30.941406 31.421875 30.28125 C 31.472656 29.894531 31.492188 29.441406 31.492188 28.933594 L 31.492188 20.097656 L 36.070312 20.097656 L 36.070312 29.453125 C 36.070312 32.214844 35.140625 34.921875 32.347656 35.933594 C 31.507812 36.238281 30.507812 36.390625 29.367188 36.390625 Z M 122.882812 52.601562 L 122.882812 42.375 L 125.261719 42.375 L 128.742188 47.992188 L 130.046875 50.746094 L 129.578125 50.746094 L 129.171875 46.878906 L 129.171875 42.375 L 131.484375 42.375 L 131.484375 52.601562 L 128.921875 52.601562 L 125.621094 47.125 L 124.125 43.988281 L 124.6875 43.988281 L 125.195312 48.1875 L 125.195312 52.601562 Z M 22.515625 47.507812 C 22.515625 46.640625 22.652344 45.882812 22.917969 45.226562 C 23.179688 44.574219 23.550781 44.027344 24.023438 43.585938 C 24.5 43.148438 25.050781 42.816406 25.683594 42.597656 C 26.316406 42.375 26.996094 42.265625 27.722656 42.265625 C 28.195312 42.265625 28.589844 42.292969 28.90625 42.34375 C 29.226562 42.398438 29.5 42.453125 29.730469 42.519531 C 29.960938 42.585938 30.175781 42.640625 30.382812 42.679688 L 30.054688 44.878906 C 29.921875 44.792969 29.789062 44.714844 29.648438 44.640625 C 29.46875 44.546875 29.246094 44.464844 28.960938 44.394531 C 28.683594 44.324219 28.335938 44.289062 27.929688 44.289062 C 27.410156 44.289062 26.9375 44.40625 26.519531 44.640625 C 26.097656 44.878906 25.765625 45.226562 25.519531 45.683594 C 25.273438 46.140625 25.148438 46.699219 25.148438 47.359375 C 25.148438 48.035156 25.257812 48.625 25.476562 49.128906 C 25.691406 49.632812 26.015625 50.027344 26.445312 50.308594 C 26.875 50.585938 27.402344 50.734375 28.042969 50.734375 C 28.328125 50.734375 28.621094 50.691406 28.917969 50.625 C 29.214844 50.550781 29.480469 50.464844 29.71875 50.367188 C 29.953125 50.265625 30.132812 50.167969 30.246094 50.070312 L 30.246094 52.175781 C 30.070312 52.25 29.871094 52.328125 29.636719 52.414062 C 29.398438 52.492188 29.125 52.5625 28.816406 52.625 C 28.503906 52.683594 28.148438 52.714844 27.753906 52.714844 C 26.628906 52.714844 25.675781 52.5 24.898438 52.074219 C 24.121094 51.644531 23.53125 51.042969 23.125 50.261719 C 22.722656 49.484375 22.515625 48.566406 22.515625 47.507812 Z M 36.058594 52.714844 C 35.050781 52.734375 34.195312 52.523438 33.484375 52.09375 C 32.773438 51.667969 32.234375 51.054688 31.867188 50.257812 C 31.5 49.464844 31.328125 48.523438 31.339844 47.441406 C 31.367188 46.230469 31.589844 45.25 32.011719 44.5 C 32.433594 43.746094 33.011719 43.195312 33.742188 42.839844 C 34.472656 42.484375 35.308594 42.292969 36.246094 42.265625 C 37.210938 42.238281 38.039062 42.433594 38.730469 42.851562 C 39.417969 43.273438 39.945312 43.878906 40.308594 44.667969 C 40.671875 45.457031 40.84375 46.390625 40.824219 47.46875 C 40.800781 48.679688 40.585938 49.667969 40.179688 50.4375 C 39.773438 51.199219 39.21875 51.769531 38.507812 52.132812 C 37.800781 52.503906 36.984375 52.691406 36.058594 52.714844 Z M 36.101562 50.867188 C 36.753906 50.867188 37.273438 50.601562 37.652344 50.066406 C 38.03125 49.53125 38.21875 48.640625 38.21875 47.398438 C 38.21875 46.757812 38.148438 46.195312 38 45.707031 C 37.855469 45.222656 37.636719 44.839844 37.339844 44.574219 C 37.042969 44.300781 36.664062 44.164062 36.207031 44.164062 C 35.792969 44.164062 35.414062 44.269531 35.070312 44.476562 C 34.726562 44.679688 34.453125 45.027344 34.253906 45.515625 C 34.046875 46 33.945312 46.667969 33.945312 47.507812 C 33.945312 48.160156 34.027344 48.742188 34.1875 49.242188 C 34.347656 49.75 34.585938 50.148438 34.90625 50.4375 C 35.222656 50.722656 35.617188 50.867188 36.101562 50.867188 Z M 42.496094 52.601562 L 42.496094 42.375 L 44.882812 42.375 L 48.363281 47.992188 L 49.660156 50.746094 L 49.199219 50.746094 L 48.785156 46.878906 L 48.785156 42.375 L 51.101562 42.375 L 51.101562 52.601562 L 48.539062 52.601562 L 45.238281 47.125 L 43.742188 43.988281 L 44.304688 43.988281 L 44.8125 48.1875 L 44.8125 52.601562 Z M 56.175781 52.714844 C 55.691406 52.714844 55.226562 52.679688 54.789062 52.605469 C 54.34375 52.535156 53.960938 52.449219 53.636719 52.351562 C 53.3125 52.253906 53.085938 52.160156 52.953125 52.078125 L 53.269531 50.085938 C 53.4375 50.179688 53.664062 50.28125 53.949219 50.382812 C 54.238281 50.480469 54.558594 50.566406 54.910156 50.636719 C 55.257812 50.707031 55.613281 50.746094 55.964844 50.746094 C 56.449219 50.746094 56.796875 50.675781 57.011719 50.539062 C 57.230469 50.398438 57.339844 50.179688 57.339844 49.878906 C 57.339844 49.65625 57.273438 49.46875 57.140625 49.316406 C 57.007812 49.160156 56.789062 49.007812 56.488281 48.847656 C 56.183594 48.6875 55.773438 48.480469 55.269531 48.238281 C 54.839844 48.035156 54.445312 47.785156 54.082031 47.507812 C 53.726562 47.230469 53.429688 46.882812 53.210938 46.488281 C 52.996094 46.089844 52.882812 45.621094 52.882812 45.074219 C 52.882812 44.605469 52.972656 44.195312 53.148438 43.84375 C 53.324219 43.496094 53.578125 43.195312 53.898438 42.96875 C 54.214844 42.734375 54.601562 42.558594 55.042969 42.441406 C 55.484375 42.324219 55.976562 42.265625 56.515625 42.265625 C 57.28125 42.265625 57.910156 42.335938 58.394531 42.480469 C 58.878906 42.621094 59.210938 42.746094 59.390625 42.859375 L 58.996094 44.773438 C 58.789062 44.613281 58.476562 44.460938 58.046875 44.324219 C 57.625 44.191406 57.179688 44.125 56.738281 44.125 C 56.414062 44.125 56.152344 44.160156 55.949219 44.230469 C 55.742188 44.300781 55.585938 44.398438 55.488281 44.53125 C 55.390625 44.660156 55.335938 44.808594 55.335938 44.976562 C 55.335938 45.183594 55.398438 45.367188 55.519531 45.523438 C 55.636719 45.683594 55.828125 45.839844 56.085938 45.992188 C 56.34375 46.148438 56.679688 46.316406 57.089844 46.507812 C 57.496094 46.683594 57.886719 46.886719 58.265625 47.113281 C 58.613281 47.320312 58.90625 47.542969 59.144531 47.785156 C 59.390625 48.027344 59.574219 48.304688 59.699219 48.613281 C 59.824219 48.921875 59.886719 49.28125 59.886719 49.683594 C 59.886719 50.292969 59.746094 50.828125 59.457031 51.28125 C 59.171875 51.734375 58.753906 52.085938 58.199219 52.335938 C 57.648438 52.585938 56.972656 52.714844 56.175781 52.714844 Z M 63.3125 52.601562 L 63.3125 44.347656 L 60.597656 44.347656 L 60.597656 42.375 L 68.601562 42.375 L 68.601562 44.347656 L 65.890625 44.347656 L 65.890625 52.601562 Z M 72.4375 52.601562 L 69.890625 52.601562 L 69.890625 42.375 L 70.765625 42.375 C 71.132812 42.375 71.554688 42.359375 72.03125 42.320312 C 72.507812 42.285156 73.109375 42.265625 73.835938 42.265625 C 74.285156 42.265625 74.730469 42.316406 75.175781 42.414062 C 75.625 42.511719 76.035156 42.679688 76.40625 42.921875 C 76.773438 43.160156 77.070312 43.496094 77.292969 43.917969 C 77.519531 44.339844 77.632812 44.871094 77.632812 45.515625 C 77.632812 46.214844 77.515625 46.785156 77.285156 47.238281 C 77.054688 47.691406 76.734375 48.039062 76.328125 48.285156 C 76.230469 48.34375 76.125 48.398438 76.015625 48.453125 C 76.148438 48.554688 76.273438 48.679688 76.378906 48.832031 C 76.570312 49.09375 76.746094 49.394531 76.902344 49.734375 C 77.058594 50.078125 77.214844 50.433594 77.371094 50.800781 C 77.527344 51.171875 77.699219 51.523438 77.894531 51.859375 C 77.960938 51.984375 78.03125 52.105469 78.105469 52.230469 C 78.179688 52.355469 78.25 52.480469 78.316406 52.601562 L 75.507812 52.601562 C 75.449219 52.523438 75.398438 52.441406 75.355469 52.351562 C 75.304688 52.253906 75.234375 52.09375 75.136719 51.875 C 75 51.566406 74.875 51.242188 74.769531 50.90625 C 74.65625 50.570312 74.546875 50.253906 74.433594 49.960938 C 74.324219 49.667969 74.195312 49.425781 74.050781 49.238281 C 73.914062 49.070312 73.75 48.976562 73.5625 48.960938 C 73.277344 48.976562 72.902344 48.984375 72.4375 48.984375 Z M 72.4375 47.207031 C 72.527344 47.222656 72.652344 47.234375 72.808594 47.242188 C 72.964844 47.253906 73.121094 47.253906 73.28125 47.257812 C 73.441406 47.257812 73.574219 47.261719 73.683594 47.261719 C 74.207031 47.261719 74.585938 47.09375 74.824219 46.761719 C 75.058594 46.429688 75.175781 46.027344 75.175781 45.558594 C 75.175781 45.304688 75.136719 45.0625 75.046875 44.835938 C 74.957031 44.609375 74.792969 44.425781 74.550781 44.28125 C 74.3125 44.140625 73.96875 44.070312 73.519531 44.070312 C 73.335938 44.070312 73.152344 44.078125 72.964844 44.097656 C 72.773438 44.121094 72.597656 44.152344 72.4375 44.195312 Z M 83.785156 52.714844 C 82.734375 52.714844 81.894531 52.53125 81.261719 52.160156 C 80.632812 51.796875 80.179688 51.28125 79.898438 50.621094 C 79.621094 49.960938 79.480469 49.1875 79.480469 48.308594 L 79.507812 42.375 L 82.042969 42.375 L 82.015625 48.003906 C 82.011719 48.71875 82.078125 49.273438 82.207031 49.660156 C 82.335938 50.046875 82.53125 50.316406 82.789062 50.464844 C 83.046875 50.613281 83.363281 50.691406 83.742188 50.691406 C 84.128906 50.691406 84.449219 50.613281 84.703125 50.457031 C 84.957031 50.300781 85.152344 50.027344 85.277344 49.636719 C 85.40625 49.246094 85.46875 48.703125 85.46875 48.003906 L 85.46875 42.375 L 87.992188 42.375 L 87.992188 48.347656 C 87.992188 49.71875 87.65625 50.785156 86.988281 51.558594 C 86.316406 52.328125 85.25 52.714844 83.785156 52.714844 Z M 89.46875 47.507812 C 89.46875 46.640625 89.601562 45.882812 89.867188 45.226562 C 90.132812 44.574219 90.503906 44.027344 90.976562 43.585938 C 91.453125 43.148438 92.007812 42.816406 92.632812 42.597656 C 93.265625 42.375 93.945312 42.265625 94.675781 42.265625 C 95.148438 42.265625 95.542969 42.292969 95.863281 42.34375 C 96.179688 42.398438 96.453125 42.453125 96.683594 42.519531 C 96.914062 42.585938 97.132812 42.640625 97.335938 42.679688 L 97.007812 44.878906 C 96.910156 44.816406 96.777344 44.734375 96.601562 44.640625 C 96.425781 44.546875 96.199219 44.464844 95.917969 44.394531 C 95.636719 44.324219 95.289062 44.289062 94.882812 44.289062 C 94.363281 44.289062 93.890625 44.40625 93.472656 44.640625 C 93.050781 44.878906 92.71875 45.226562 92.472656 45.683594 C 92.226562 46.140625 92.101562 46.699219 92.101562 47.359375 C 92.101562 48.035156 92.210938 48.625 92.429688 49.128906 C 92.648438 49.632812 92.96875 50.027344 93.398438 50.308594 C 93.824219 50.585938 94.359375 50.734375 94.996094 50.734375 C 95.28125 50.734375 95.574219 50.691406 95.871094 50.625 C 96.167969 50.550781 96.433594 50.464844 96.671875 50.367188 C 96.910156 50.265625 97.085938 50.167969 97.199219 50.070312 L 97.199219 52.175781 C 97.027344 52.25 96.820312 52.328125 96.585938 52.414062 C 96.351562 52.492188 96.078125 52.5625 95.769531 52.625 C 95.457031 52.683594 95.101562 52.714844 94.707031 52.714844 C 93.582031 52.714844 92.632812 52.5 91.851562 52.074219 C 91.074219 51.644531 90.484375 51.042969 90.078125 50.261719 C 89.675781 49.484375 89.46875 48.566406 89.46875 47.507812 Z M 100.625 52.601562 L 100.625 44.347656 L 97.914062 44.347656 L 97.914062 42.375 L 105.917969 42.375 L 105.917969 44.347656 L 103.199219 44.347656 L 103.199219 52.601562 Z M 107.339844 52.601562 L 107.339844 42.375 L 109.917969 42.375 L 109.917969 52.601562 Z M 116.4375 52.714844 C 115.433594 52.734375 114.578125 52.523438 113.867188 52.09375 C 113.15625 51.667969 112.617188 51.054688 112.25 50.257812 C 111.882812 49.464844 111.707031 48.523438 111.726562 47.441406 C 111.75 46.230469 111.972656 45.25 112.394531 44.5 C 112.816406 43.746094 113.390625 43.195312 114.121094 42.839844 C 114.851562 42.484375 115.691406 42.292969 116.632812 42.265625 C 117.59375 42.238281 118.421875 42.433594 119.113281 42.851562 C 119.800781 43.273438 120.328125 43.878906 120.691406 44.667969 C 121.054688 45.457031 121.222656 46.390625 121.207031 47.46875 C 121.183594 48.679688 120.96875 49.667969 120.566406 50.4375 C 120.15625 51.199219 119.601562 51.769531 118.894531 52.132812 C 118.183594 52.503906 117.363281 52.691406 116.4375 52.714844 Z M 116.480469 50.867188 C 117.140625 50.867188 117.65625 50.601562 118.035156 50.066406 C 118.414062 49.53125 118.605469 48.640625 118.605469 47.398438 C 118.605469 46.757812 118.53125 46.195312 118.382812 45.707031 C 118.238281 45.222656 118.015625 44.839844 117.71875 44.574219 C 117.425781 44.300781 117.046875 44.164062 116.589844 44.164062 C 116.171875 44.164062 115.792969 44.269531 115.453125 44.476562 C 115.109375 44.679688 114.839844 45.027344 114.632812 45.515625 C 114.433594 46 114.328125 46.667969 114.328125 47.507812 C 114.328125 48.160156 114.40625 48.742188 114.566406 49.242188 C 114.730469 49.75 114.96875 50.148438 115.285156 50.4375 C 115.601562 50.722656 116 50.867188 116.480469 50.867188 Z M 38.636719 35.828125 L 38.636719 20.097656 L 42.828125 20.097656 C 44.382812 22.628906 47.042969 26.335938 48.234375 28.847656 C 47.921875 25.914062 48.066406 23.0625 48.066406 20.097656 L 52.328125 20.097656 L 52.328125 36.226562 L 47.871094 36.226562 C 46.335938 33.695312 43.929688 30.191406 42.71875 27.648438 C 43.070312 30.554688 42.902344 33.253906 42.902344 36.226562 L 38.636719 36.226562 Z M 55.1875 35.828125 L 55.1875 20.097656 C 57.207031 20.097656 59.160156 19.960938 61.167969 19.933594 C 63.875 19.933594 65.867188 20.625 67.152344 22.011719 C 67.789062 22.695312 68.273438 23.535156 68.59375 24.507812 C 68.90625 25.460938 69.066406 26.554688 69.066406 27.777344 C 69.066406 28.667969 68.988281 29.507812 68.828125 30.277344 C 68.214844 33.289062 66.320312 35.453125 63.296875 36.144531 C 62.574219 36.308594 61.789062 36.390625 60.945312 36.386719 C 59.910156 36.355469 58.882812 36.300781 57.847656 36.242188 L 55.1875 36.226562 Z M 59.824219 32.679688 C 60.289062 32.734375 60.707031 32.757812 61.175781 32.765625 C 63.066406 32.757812 63.941406 31.371094 64.203125 29.636719 C 64.386719 28.390625 64.359375 26.488281 63.929688 25.296875 C 63.433594 23.925781 62.417969 23.492188 61.027344 23.492188 C 60.613281 23.507812 60.234375 23.535156 59.824219 23.582031 Z M 71.121094 35.828125 L 71.121094 20.097656 L 81.570312 20.097656 L 81.570312 23.761719 L 75.71875 23.761719 L 75.71875 26.203125 L 80.238281 26.203125 L 80.238281 29.785156 L 75.71875 29.785156 L 75.71875 32.496094 L 82.167969 32.496094 L 82.167969 36.226562 L 71.121094 36.226562 Z M 88.359375 36.226562 L 84.140625 36.226562 L 84.140625 20.097656 L 86.71875 20.078125 L 88.949219 19.953125 L 90.453125 19.933594 C 91.148438 19.933594 91.851562 20.007812 92.550781 20.160156 C 94.472656 20.582031 95.984375 21.804688 96.40625 23.796875 C 96.492188 24.226562 96.542969 24.691406 96.542969 25.199219 C 96.542969 26.308594 96.351562 27.226562 95.980469 27.960938 C 95.785156 28.335938 95.5625 28.667969 95.300781 28.953125 C 95.039062 29.238281 94.730469 29.488281 94.394531 29.691406 L 94.589844 29.933594 C 94.886719 30.347656 95.164062 30.828125 95.410156 31.359375 L 96.480469 33.761719 C 96.921875 34.597656 97.386719 35.40625 97.855469 36.226562 L 92.773438 36.226562 C 92.292969 35.644531 92.027344 34.859375 91.742188 34.171875 L 90.980469 32 L 90.730469 31.453125 L 90.460938 31.03125 C 90.386719 30.9375 90.304688 30.867188 90.222656 30.824219 L 90.03125 30.761719 L 88.753906 30.792969 L 88.753906 36.226562 Z M 88.753906 27.378906 C 89.25 27.414062 89.730469 27.417969 90.226562 27.421875 C 91.15625 27.417969 91.6875 27.027344 91.953125 26.132812 C 92.109375 25.582031 92.109375 24.871094 91.898438 24.328125 C 91.597656 23.566406 90.695312 23.433594 89.980469 23.433594 C 89.585938 23.441406 89.140625 23.457031 88.753906 23.542969 Z M 88.753906 27.378906 "/>
    </g>
</svg>
