<svg xmlns="http://www.w3.org/2000/svg" width="30" height="31" viewBox="0 0 30 31" fill="none">
    <path fill-rule="evenodd" clip-rule="evenodd" d="M13 20.0925H17C17.55 20.0925 18 19.6425 18 19.0925V14.0925H19.59C20.48 14.0925 20.93 13.0125 20.3 12.3825L15.71 7.79249C15.5232 7.60523 15.2695 7.5 15.005 7.5C14.7405 7.5 14.4868 7.60523 14.3 7.79249L9.71 12.3825C9.08 13.0125 9.52 14.0925 10.41 14.0925H12V19.0925C12 19.6425 12.45 20.0925 13 20.0925ZM9 22.0925H21C21.55 22.0925 22 22.5425 22 23.0925C22 23.6425 21.55 24.0925 21 24.0925H9C8.45 24.0925 8 23.6425 8 23.0925C8 22.5425 8.45 22.0925 9 22.0925Z" fill="#C3CAD9"/>
</svg>