<svg width="28" height="28" viewBox="0 0 28 28" fill="none" xmlns="http://www.w3.org/2000/svg">
<path fill-rule="evenodd" clip-rule="evenodd" d="M14 4.66675C8.84796 4.66675 4.66663 8.84808 4.66663 14.0001C4.66663 19.1521 8.84796 23.3334 14 23.3334C19.152 23.3334 23.3333 19.1521 23.3333 14.0001C23.3333 8.84808 19.152 4.66675 14 4.66675ZM17.3693 10.5841C18.368 10.5841 19.1706 11.3867 19.1706 12.3854C19.1706 13.3841 18.368 14.1867 17.3693 14.1867C16.3706 14.1867 15.568 13.3841 15.568 12.3854C15.5586 11.3867 16.3706 10.5841 17.3693 10.5841ZM11.7693 9.10942C12.9826 9.10942 13.972 10.0987 13.972 11.3121C13.972 12.5254 12.9826 13.5147 11.7693 13.5147C10.556 13.5147 9.56663 12.5254 9.56663 11.3121C9.56663 10.0894 10.5466 9.10942 11.7693 9.10942ZM11.7693 17.6307V21.1307C9.52929 20.4307 7.75596 18.7041 6.97196 16.5014C7.95196 15.4561 10.3973 14.9241 11.7693 14.9241C12.264 14.9241 12.8893 14.9987 13.5426 15.1294C12.012 15.9414 11.7693 17.0147 11.7693 17.6307ZM14 21.4667C13.748 21.4667 13.5053 21.4574 13.2626 21.4294V17.6307C13.2626 16.3054 16.0066 15.6427 17.3693 15.6427C18.368 15.6427 20.0946 16.0067 20.9533 16.7161C19.8613 19.4881 17.164 21.4667 14 21.4667Z" fill="#C3CAD9"/>
</svg>
