<svg width="65" height="40" viewBox="0 0 65 40" fill="none" xmlns="http://www.w3.org/2000/svg">
<g clip-path="url(#clip0_907_12918)">
<rect width="65" height="40" rx="3" fill="url(#paint0_linear_907_12918)"/>
<path d="M8.84082 9.89062L10.1787 12.3711L11.5166 9.89062H13.1914L11.126 13.416L13.2451 17H11.5557L10.1787 14.4707L8.80176 17H7.10254L9.22656 13.416L7.15625 9.89062H8.84082ZM15.1885 9.89062L16.5264 12.3711L17.8643 9.89062H19.5391L17.4736 13.416L19.5928 17H17.9033L16.5264 14.4707L15.1494 17H13.4502L15.5742 13.416L13.5039 9.89062H15.1885ZM21.5361 9.89062L22.874 12.3711L24.2119 9.89062H25.8867L23.8213 13.416L25.9404 17H24.251L22.874 14.4707L21.4971 17H19.7979L21.9219 13.416L19.8516 9.89062H21.5361ZM27.8838 9.89062L29.2217 12.3711L30.5596 9.89062H32.2344L30.1689 13.416L32.2881 17H30.5986L29.2217 14.4707L27.8447 17H26.1455L28.2695 13.416L26.1992 9.89062H27.8838Z" fill="white"/>
<path d="M44.387 32.7141H42.4404L43.657 25.2373H45.6038L44.387 32.7141Z" fill="white"/>
<path d="M40.8025 25.2373L38.9467 30.3799L38.7271 29.2725L38.7273 29.2729L38.0723 25.9105C38.0723 25.9105 37.9931 25.2373 37.1489 25.2373H34.0809L34.0449 25.3639C34.0449 25.3639 34.9831 25.5591 36.0811 26.2185L37.7723 32.7143H39.8005L42.8975 25.2373H40.8025Z" fill="white"/>
<path fill-rule="evenodd" clip-rule="evenodd" d="M57.9006 32.7143H56.1132L55.8852 31.6037H53.4106L53.0048 32.7143H50.9756L53.8788 25.7945C53.8788 25.7945 54.0548 25.2373 54.7774 25.2373H56.3422L57.9006 32.7143ZM54.994 27.2715L53.9712 30.0695H55.5694L54.994 27.2715Z" fill="white"/>
<path d="M51.1279 27.0351L51.4057 25.4295C51.4057 25.4295 50.5485 25.1035 49.6549 25.1035C48.6889 25.1035 46.3949 25.5257 46.3949 27.5787C46.3949 29.5103 49.0873 29.5343 49.0873 30.5489C49.0873 31.5635 46.6723 31.3817 45.8753 30.7419L45.5859 32.4207C45.5859 32.4207 46.4551 32.8429 47.7831 32.8429C49.1115 32.8429 51.1155 32.1551 51.1155 30.2831C51.1155 28.3391 48.3989 28.1581 48.3989 27.3129C48.3991 26.4675 50.2949 26.5761 51.1279 27.0351Z" fill="white"/>
<path d="M38.7273 29.2729L38.0723 25.9105C38.0723 25.9105 37.9931 25.2373 37.1489 25.2373H34.0809L34.0449 25.3639C34.0449 25.3639 35.5195 25.6695 36.9339 26.8145C38.2863 27.9089 38.7273 29.2729 38.7273 29.2729Z" fill="white"/>
</g>
<defs>
<linearGradient id="paint0_linear_907_12918" x1="11.7029" y1="-9.56847" x2="-0.715751" y2="57.4132" gradientUnits="userSpaceOnUse">
<stop stop-color="#3B3B3B"/>
<stop offset="1" stop-color="#767676"/>
</linearGradient>
<clipPath id="clip0_907_12918">
<rect width="65" height="40" fill="white"/>
</clipPath>
</defs>
</svg>
