<svg width="28" height="30" viewBox="0 0 28 30" fill="none" xmlns="http://www.w3.org/2000/svg">
<path fill-rule="evenodd" clip-rule="evenodd" d="M23.0568 12.0125H18.7484L14.7997 5.4425C14.4399 4.8525 13.6574 4.8525 13.3066 5.4425L9.3579 12.0125H5.06744C4.57273 12.0125 4.16797 12.4625 4.16797 13.0125C4.16797 13.1025 4.17696 13.1925 4.20395 13.2825L6.4886 22.5525C6.69547 23.3925 7.38807 24.0125 8.21558 24.0125H19.9087C20.7362 24.0125 21.4288 23.3925 21.6446 22.5525L23.9293 13.2825L23.9563 13.0125C23.9563 12.4625 23.5515 12.0125 23.0568 12.0125ZM14.0531 7.8025L16.5806 12.0125H11.5256L14.0531 7.8025ZM14.0621 20.0125C13.0727 20.0125 12.2632 19.1125 12.2632 18.0125C12.2632 16.9125 13.0727 16.0125 14.0621 16.0125C15.0515 16.0125 15.8611 16.9125 15.8611 18.0125C15.8611 19.1125 15.0515 20.0125 14.0621 20.0125Z" fill="#C3CAD9"/>
</svg>
