<?xml version="1.0" encoding="UTF-8"?>
<svg xmlns="http://www.w3.org/2000/svg" xmlns:xlink="http://www.w3.org/1999/xlink" width="30px" height="30px" viewBox="0 0 30 30" version="1.1">
    <g id="surface1">
        <path style=" stroke:none;fill-rule:nonzero;fill:rgb(76.470588%,79.215686%,85.098039%);fill-opacity:1;" d="M 21.160156 16.070312 L 8.851562 16.070312 C 8.707031 16.070312 8.585938 16.191406 8.585938 16.339844 L 8.582031 17.945312 C 8.582031 18.09375 8.703125 18.214844 8.847656 18.214844 L 21.160156 18.214844 C 21.308594 18.214844 21.429688 18.09375 21.429688 17.945312 L 21.429688 16.339844 C 21.429688 16.191406 21.308594 16.070312 21.160156 16.070312 Z M 21.160156 19.285156 L 8.84375 19.285156 C 8.695312 19.285156 8.574219 19.40625 8.574219 19.554688 L 8.570312 21.160156 C 8.570312 21.308594 8.691406 21.429688 8.839844 21.429688 L 21.160156 21.429688 C 21.308594 21.429688 21.429688 21.308594 21.429688 21.160156 L 21.429688 19.554688 C 21.429688 19.40625 21.308594 19.285156 21.160156 19.285156 Z M 21.160156 12.855469 L 8.859375 12.855469 C 8.710938 12.855469 8.589844 12.976562 8.589844 13.125 L 8.589844 14.730469 C 8.589844 14.878906 8.707031 15 8.855469 15 L 21.160156 15 C 21.308594 15 21.429688 14.878906 21.429688 14.730469 L 21.429688 13.125 C 21.429688 12.976562 21.308594 12.855469 21.160156 12.855469 Z M 24.726562 8.203125 L 15.617188 4.410156 C 15.21875 4.246094 14.777344 4.246094 14.378906 4.410156 L 5.273438 8.203125 C 4.675781 8.453125 4.285156 9.035156 4.285156 9.6875 L 4.285156 21.160156 C 4.285156 21.308594 4.40625 21.429688 4.554688 21.429688 L 7.230469 21.429688 C 7.378906 21.429688 7.5 21.308594 7.5 21.160156 L 7.5 12.855469 C 7.5 12.269531 7.988281 11.785156 8.589844 11.785156 L 21.410156 11.785156 C 22.011719 11.785156 22.5 12.269531 22.5 12.855469 L 22.5 21.160156 C 22.5 21.308594 22.621094 21.429688 22.769531 21.429688 L 25.445312 21.429688 C 25.59375 21.429688 25.714844 21.308594 25.714844 21.160156 L 25.714844 9.6875 C 25.714844 9.035156 25.324219 8.453125 24.726562 8.203125 Z M 24.726562 8.203125 "/>
    </g>
</svg>
